G04 Layer_Color=128*
%FSLAX25Y25*%
%MOIN*%
G70*
G01*
G75*
%ADD70C,0.00200*%
D70*
X268508Y331378D02*
X271657D01*
X270083Y329803D02*
Y332953D01*
X268508Y361299D02*
X271657D01*
X270083Y359724D02*
Y362874D01*
X302764Y137752D02*
X306701D01*
X304732Y135784D02*
Y139720D01*
X302764Y147752D02*
X306701D01*
X304732Y145783D02*
Y149721D01*
X302764Y157752D02*
X306701D01*
X304732Y155783D02*
Y159721D01*
X111031Y215075D02*
X114969D01*
X113000Y213106D02*
Y217043D01*
X111031Y205075D02*
X114969D01*
X113000Y203106D02*
Y207043D01*
X111031Y195075D02*
X114969D01*
X113000Y193106D02*
Y197043D01*
X111031Y225075D02*
X114969D01*
X113000Y223106D02*
Y227043D01*
X301976Y201059D02*
X305913D01*
X303945Y199091D02*
Y203028D01*
X301976Y191059D02*
X305913D01*
X303945Y189091D02*
Y193027D01*
X301976Y181059D02*
X305913D01*
X303945Y179091D02*
Y183028D01*
X301976Y211059D02*
X305913D01*
X303945Y209090D02*
Y213028D01*
X246071Y111925D02*
X250008D01*
X248039Y109957D02*
Y113894D01*
X256071Y111925D02*
X260008D01*
X258039Y109957D02*
Y113894D01*
X266071Y111925D02*
X270008D01*
X268039Y109957D02*
Y113894D01*
X236071Y111925D02*
X240008D01*
X238039Y109957D02*
Y113894D01*
X226071Y111925D02*
X230008D01*
X228039Y109957D02*
Y113894D01*
X135433Y126878D02*
X139370D01*
X137402Y124909D02*
Y128847D01*
X149606Y126878D02*
X153543D01*
X151575Y124909D02*
Y128847D01*
X179535Y126886D02*
X183472D01*
X181504Y124917D02*
Y128854D01*
X193709Y126886D02*
X197646D01*
X195677Y124917D02*
Y128854D01*
X291240Y260812D02*
X294783D01*
X293012Y259040D02*
Y262584D01*
X259744Y260812D02*
X263287D01*
X261516Y259040D02*
Y262584D01*
X104724Y113098D02*
X120472D01*
X112598Y105224D02*
Y120972D01*
X297638Y365067D02*
X313386D01*
X305512Y357193D02*
Y372941D01*
X145374Y276976D02*
X146949D01*
X146161Y276189D02*
Y277764D01*
X167815Y169693D02*
X168996D01*
X168405Y169102D02*
Y170283D01*
X147736Y146661D02*
X149114D01*
X148425Y145972D02*
Y147350D01*
X124508Y324417D02*
X125886D01*
X125197Y323728D02*
Y325106D01*
X210039Y259949D02*
X211221D01*
X210630Y259358D02*
Y260539D01*
X202165Y224417D02*
X203740D01*
X202953Y223630D02*
Y225205D01*
X202165Y213689D02*
X203740D01*
X202953Y212902D02*
Y214476D01*
X223524Y150992D02*
X224902D01*
X224213Y150303D02*
Y151681D01*
X240650Y142724D02*
X241831D01*
X241240Y142134D02*
Y143315D01*
X160827Y216248D02*
X162008D01*
X161417Y215657D02*
Y216839D01*
X171095Y224878D02*
X172276D01*
X171685Y224287D02*
Y225468D01*
X153937Y245874D02*
X155512D01*
X154724Y245087D02*
Y246661D01*
X257480Y156602D02*
X258661D01*
X258071Y156012D02*
Y157193D01*
X261713Y151878D02*
X262894D01*
X262303Y151287D02*
Y152469D01*
X247335Y123228D02*
X248516D01*
X247925Y122638D02*
Y123819D01*
X219193Y127173D02*
X220768D01*
X219980Y126386D02*
Y127961D01*
X264469Y127469D02*
X266043D01*
X265256Y126681D02*
Y128256D01*
X255709Y145087D02*
X257283D01*
X256496Y144299D02*
Y145874D01*
X245866Y141839D02*
X247047D01*
X246457Y141248D02*
Y142429D01*
X248425Y151091D02*
X249606D01*
X249016Y150500D02*
Y151681D01*
X244587Y147449D02*
X245768D01*
X245177Y146858D02*
Y148039D01*
X295276Y218905D02*
X296457D01*
X295866Y218315D02*
Y219496D01*
X295079Y225106D02*
X296260D01*
X295669Y224516D02*
Y225697D01*
X223819Y205274D02*
X225000D01*
X224410Y204683D02*
Y205864D01*
X250787Y159653D02*
X251969D01*
X251378Y159063D02*
Y160244D01*
X263681Y212803D02*
X264862D01*
X264272Y212213D02*
Y213394D01*
X243701Y178748D02*
X244882D01*
X244291Y178157D02*
Y179339D01*
X252165Y206110D02*
X253346D01*
X252756Y205520D02*
Y206701D01*
X247146Y206799D02*
X248327D01*
X247736Y206209D02*
Y207390D01*
X250378Y214968D02*
X251559D01*
X250969Y214378D02*
Y215559D01*
X217921Y178756D02*
X219102D01*
X218512Y178165D02*
Y179347D01*
X217921Y184366D02*
X219102D01*
X218512Y183776D02*
Y184957D01*
X168307Y257980D02*
X169488D01*
X168898Y257390D02*
Y258571D01*
X163386Y278650D02*
X164961D01*
X164173Y277862D02*
Y279437D01*
X237205Y183571D02*
X238386D01*
X237795Y182980D02*
Y184161D01*
X236417Y177272D02*
X237598D01*
X237008Y176681D02*
Y177862D01*
X241732Y189083D02*
X242913D01*
X242323Y188492D02*
Y189673D01*
X171063Y235539D02*
X172244D01*
X171653Y234949D02*
Y236130D01*
M02*
