G04 Layer_Physical_Order=1*
G04 Layer_Color=255*
%FSLAX25Y25*%
%MOIN*%
G70*
G01*
G75*
%ADD10R,0.07087X0.03937*%
%ADD11R,0.07087X0.04842*%
%ADD12R,0.04528X0.07087*%
%ADD13R,0.07087X0.04528*%
%ADD14R,0.05905X0.07874*%
%ADD15R,0.03937X0.07087*%
%ADD16R,0.06299X0.05512*%
%ADD17R,0.04724X0.08661*%
%ADD18R,0.04724X0.05512*%
%ADD19R,0.02756X0.06299*%
%ADD20R,0.03740X0.10236*%
%ADD21R,0.19291X0.24410*%
%ADD22R,0.01181X0.05709*%
%ADD23R,0.05709X0.01181*%
%ADD24R,0.01378X0.01968*%
%ADD25R,0.02953X0.00787*%
%ADD26R,0.00787X0.02953*%
%ADD27R,0.10630X0.10236*%
%ADD28R,0.05118X0.04331*%
%ADD29C,0.01968*%
%ADD30C,0.01000*%
%ADD31C,0.01181*%
%ADD32C,0.01378*%
%ADD33C,0.01575*%
%ADD34C,0.06693*%
%ADD35R,0.06693X0.06693*%
%ADD36R,0.06693X0.06693*%
%ADD37C,0.07874*%
%ADD38C,0.11811*%
%ADD39C,0.03150*%
%ADD40C,0.02362*%
%ADD41C,0.02756*%
G36*
X316929Y101295D02*
X100795Y101295D01*
X100795Y376886D01*
X316929Y376886D01*
X316929Y101295D01*
D02*
G37*
%LPC*%
G36*
X139378Y197098D02*
X136335D01*
Y194315D01*
X140398D01*
Y196079D01*
X140320Y196469D01*
X140099Y196800D01*
X139768Y197021D01*
X139378Y197098D01*
D02*
G37*
G36*
X163681Y199559D02*
X160638D01*
X160248Y199481D01*
X159917Y199260D01*
X159696Y198930D01*
X159618Y198539D01*
Y197071D01*
X163681D01*
Y199559D01*
D02*
G37*
G36*
X135335Y197098D02*
X132291D01*
X131901Y197021D01*
X131570Y196800D01*
X131349Y196469D01*
X131272Y196079D01*
Y194315D01*
X135335D01*
Y197098D01*
D02*
G37*
G36*
X188484Y196071D02*
X184421D01*
Y194602D01*
X184499Y194212D01*
X184720Y193881D01*
X185051Y193660D01*
X185441Y193583D01*
X188484D01*
Y196071D01*
D02*
G37*
G36*
X193547D02*
X189484D01*
Y193583D01*
X192528D01*
X192918Y193660D01*
X193248Y193881D01*
X193470Y194212D01*
X193547Y194602D01*
Y196071D01*
D02*
G37*
G36*
X112500Y204575D02*
X108682D01*
X108765Y203940D01*
X109203Y202883D01*
X109900Y201975D01*
X110808Y201278D01*
X111865Y200840D01*
X112500Y200757D01*
Y204575D01*
D02*
G37*
G36*
X117318D02*
X113500D01*
Y200757D01*
X114135Y200840D01*
X115192Y201278D01*
X116100Y201975D01*
X116797Y202883D01*
X117235Y203940D01*
X117318Y204575D01*
D02*
G37*
G36*
X192528Y199559D02*
X189484D01*
Y197071D01*
X193547D01*
Y198539D01*
X193470Y198930D01*
X193248Y199260D01*
X192918Y199481D01*
X192528Y199559D01*
D02*
G37*
G36*
X167724D02*
X164681D01*
Y197071D01*
X168744D01*
Y198539D01*
X168666Y198930D01*
X168445Y199260D01*
X168115Y199481D01*
X167724Y199559D01*
D02*
G37*
G36*
X188484D02*
X185441D01*
X185051Y199481D01*
X184720Y199260D01*
X184499Y198930D01*
X184421Y198539D01*
Y197071D01*
X188484D01*
Y199559D01*
D02*
G37*
G36*
X168405Y171299D02*
X167791Y171176D01*
X167270Y170828D01*
X166922Y170307D01*
X166800Y169693D01*
X166922Y169078D01*
X167107Y168802D01*
Y161564D01*
X165559D01*
X165258Y161439D01*
X165133Y161138D01*
Y153264D01*
X165258Y152962D01*
X165559Y152838D01*
X171465D01*
X171766Y152962D01*
X171891Y153264D01*
Y161138D01*
X171766Y161439D01*
X171465Y161564D01*
X169917D01*
Y169218D01*
X170011Y169693D01*
X169889Y170307D01*
X169541Y170828D01*
X169020Y171176D01*
X168405Y171299D01*
D02*
G37*
G36*
X135335Y193315D02*
X131272D01*
Y191551D01*
X131349Y191161D01*
X131570Y190830D01*
X131901Y190609D01*
X132291Y190532D01*
X135335D01*
Y193315D01*
D02*
G37*
G36*
X249516Y153215D02*
Y151591D01*
X250588Y152663D01*
X249867Y153145D01*
X249516Y153215D01*
D02*
G37*
G36*
X305232Y152070D02*
Y148252D01*
X309050D01*
X308967Y148887D01*
X308529Y149944D01*
X307832Y150852D01*
X306924Y151549D01*
X305867Y151987D01*
X305232Y152070D01*
D02*
G37*
G36*
X202362Y161556D02*
X198425D01*
X198124Y161431D01*
X197999Y161130D01*
Y154043D01*
X198124Y153742D01*
X198425Y153617D01*
X202362D01*
X202663Y153742D01*
X202788Y154043D01*
Y156190D01*
X217028D01*
X222451Y150767D01*
X222544Y150301D01*
X222935Y149715D01*
X223521Y149323D01*
X224213Y149186D01*
X224904Y149323D01*
X225490Y149715D01*
X225882Y150301D01*
X226019Y150992D01*
X225882Y151683D01*
X225490Y152269D01*
X224904Y152661D01*
X224438Y152754D01*
X218604Y158588D01*
X218148Y158893D01*
X217610Y158999D01*
X202788D01*
Y161130D01*
X202663Y161431D01*
X202362Y161556D01*
D02*
G37*
G36*
X163681Y196071D02*
X159618D01*
Y194602D01*
X159696Y194212D01*
X159917Y193881D01*
X160248Y193660D01*
X160638Y193583D01*
X163681D01*
Y196071D01*
D02*
G37*
G36*
X168744D02*
X164681D01*
Y193583D01*
X167724D01*
X168115Y193660D01*
X168445Y193881D01*
X168666Y194212D01*
X168744Y194602D01*
Y196071D01*
D02*
G37*
G36*
X304445Y195377D02*
Y191559D01*
X308263D01*
X308179Y192194D01*
X307741Y193251D01*
X307045Y194159D01*
X306137Y194856D01*
X305080Y195294D01*
X304445Y195377D01*
D02*
G37*
G36*
X140398Y193315D02*
X136335D01*
Y190532D01*
X139378D01*
X139768Y190609D01*
X140099Y190830D01*
X140320Y191161D01*
X140398Y191551D01*
Y193315D01*
D02*
G37*
G36*
X303445Y195377D02*
X302810Y195294D01*
X301753Y194856D01*
X300845Y194159D01*
X300148Y193251D01*
X299710Y192194D01*
X299627Y191559D01*
X303445D01*
Y195377D01*
D02*
G37*
G36*
X179953Y224378D02*
X176874D01*
Y221693D01*
X178933D01*
X179323Y221771D01*
X179654Y221992D01*
X179875Y222322D01*
X179953Y222713D01*
Y224378D01*
D02*
G37*
G36*
X171185D02*
X169561D01*
X169631Y224027D01*
X170113Y223306D01*
X170834Y222823D01*
X171185Y222754D01*
Y224378D01*
D02*
G37*
G36*
X187945Y220618D02*
X185886D01*
Y217933D01*
X188964D01*
Y219598D01*
X188887Y219989D01*
X188666Y220319D01*
X188335Y220540D01*
X187945Y220618D01*
D02*
G37*
G36*
X286910Y305726D02*
X284154D01*
X283852Y305602D01*
X283727Y305300D01*
Y299001D01*
X283852Y298700D01*
X284154Y298575D01*
X284620D01*
Y234440D01*
X264536Y214356D01*
X264272Y214409D01*
X263657Y214287D01*
X263136Y213938D01*
X262788Y213418D01*
X262666Y212803D01*
X262788Y212189D01*
X263136Y211668D01*
X263657Y211320D01*
X264272Y211197D01*
X264886Y211320D01*
X265407Y211668D01*
X265755Y212189D01*
X265877Y212803D01*
X265825Y213068D01*
X286176Y233419D01*
X286373Y233714D01*
X286443Y234063D01*
Y298575D01*
X286910D01*
X287211Y298700D01*
X287336Y299001D01*
Y305300D01*
X287211Y305602D01*
X286910Y305726D01*
D02*
G37*
G36*
X184886Y220618D02*
X182827D01*
X182437Y220540D01*
X182106Y220319D01*
X181885Y219989D01*
X181807Y219598D01*
Y217933D01*
X184886D01*
Y220618D01*
D02*
G37*
G36*
X231390Y238527D02*
X229921D01*
X229531Y238450D01*
X229200Y238229D01*
X228979Y237898D01*
X228902Y237508D01*
Y234465D01*
X231390D01*
Y238527D01*
D02*
G37*
G36*
X233858D02*
X232390D01*
Y234465D01*
X234878D01*
Y237508D01*
X234800Y237898D01*
X234579Y238229D01*
X234248Y238450D01*
X233858Y238527D01*
D02*
G37*
G36*
X217858Y233472D02*
X215075D01*
Y229410D01*
X216839D01*
X217229Y229487D01*
X217560Y229708D01*
X217781Y230039D01*
X217858Y230429D01*
Y233472D01*
D02*
G37*
G36*
X231390Y233465D02*
X228902D01*
Y230421D01*
X228979Y230031D01*
X229200Y229700D01*
X229531Y229479D01*
X229921Y229402D01*
X231390D01*
Y233465D01*
D02*
G37*
G36*
X234878D02*
X232390D01*
Y229402D01*
X233858D01*
X234248Y229479D01*
X234579Y229700D01*
X234800Y230031D01*
X234878Y230421D01*
Y233465D01*
D02*
G37*
G36*
X269587Y306320D02*
X268709D01*
Y302151D01*
Y297981D01*
X269587D01*
X269977Y298059D01*
X270308Y298280D01*
X270435Y298471D01*
X270704Y298616D01*
X271041Y298625D01*
X271161Y298575D01*
X271628D01*
Y231980D01*
X248001Y208352D01*
X247736Y208405D01*
X247122Y208283D01*
X246601Y207935D01*
X246253Y207414D01*
X246131Y206799D01*
X246253Y206185D01*
X246601Y205664D01*
X247122Y205316D01*
X247736Y205194D01*
X248351Y205316D01*
X248872Y205664D01*
X249220Y206185D01*
X249342Y206799D01*
X249289Y207064D01*
X273184Y230958D01*
X273381Y231254D01*
X273451Y231602D01*
Y298575D01*
X273917D01*
X274219Y298700D01*
X274343Y299001D01*
Y305300D01*
X274219Y305602D01*
X273917Y305726D01*
X271161D01*
X271041Y305677D01*
X270704Y305686D01*
X270435Y305830D01*
X270308Y306021D01*
X269977Y306242D01*
X269587Y306320D01*
D02*
G37*
G36*
X134153Y215756D02*
X130091D01*
Y213992D01*
X130168Y213602D01*
X130389Y213271D01*
X130720Y213050D01*
X131110Y212972D01*
X134153D01*
Y215756D01*
D02*
G37*
G36*
X282579Y305726D02*
X279823D01*
X279521Y305602D01*
X279397Y305300D01*
Y299001D01*
X279521Y298700D01*
X279823Y298575D01*
X280290D01*
Y234932D01*
X253020Y207663D01*
X252756Y207716D01*
X252141Y207594D01*
X251621Y207246D01*
X251273Y206725D01*
X251150Y206110D01*
X251273Y205496D01*
X251621Y204975D01*
X252141Y204627D01*
X252756Y204505D01*
X253370Y204627D01*
X253891Y204975D01*
X254239Y205496D01*
X254362Y206110D01*
X254309Y206375D01*
X281845Y233911D01*
X282043Y234206D01*
X282112Y234555D01*
Y298575D01*
X282579D01*
X282880Y298700D01*
X283005Y299001D01*
Y305300D01*
X282880Y305602D01*
X282579Y305726D01*
D02*
G37*
G36*
X112500Y209393D02*
X111865Y209309D01*
X110808Y208871D01*
X109900Y208175D01*
X109203Y207267D01*
X108765Y206209D01*
X108682Y205575D01*
X112500D01*
Y209393D01*
D02*
G37*
G36*
X113500D02*
Y205575D01*
X117318D01*
X117235Y206209D01*
X116797Y207267D01*
X116100Y208175D01*
X115192Y208871D01*
X114135Y209309D01*
X113500Y209393D01*
D02*
G37*
G36*
X184886Y216933D02*
X181807D01*
Y215268D01*
X181885Y214878D01*
X182106Y214547D01*
X182437Y214326D01*
X182827Y214248D01*
X184886D01*
Y216933D01*
D02*
G37*
G36*
X188964D02*
X185886D01*
Y214248D01*
X187945D01*
X188335Y214326D01*
X188666Y214547D01*
X188887Y214878D01*
X188964Y215268D01*
Y216933D01*
D02*
G37*
G36*
X163542Y215748D02*
X161917D01*
Y214124D01*
X162268Y214194D01*
X162990Y214675D01*
X163472Y215397D01*
X163542Y215748D01*
D02*
G37*
G36*
X139216Y215756D02*
X135153D01*
Y212972D01*
X138197D01*
X138587Y213050D01*
X138918Y213271D01*
X139139Y213602D01*
X139216Y213992D01*
Y215756D01*
D02*
G37*
G36*
X154626D02*
X150563D01*
Y213992D01*
X150641Y213602D01*
X150862Y213271D01*
X151192Y213050D01*
X151583Y212972D01*
X154626D01*
Y215756D01*
D02*
G37*
G36*
X125402Y161564D02*
X119496D01*
X119195Y161439D01*
X119070Y161138D01*
Y153264D01*
X119195Y152962D01*
X119496Y152838D01*
X121044D01*
Y145776D01*
X121151Y145238D01*
X121455Y144782D01*
X125392Y140845D01*
X125848Y140541D01*
X126386Y140434D01*
X130520D01*
X135997Y134957D01*
Y130983D01*
X135217Y130661D01*
X134313Y129967D01*
X133619Y129062D01*
X133182Y128008D01*
X133034Y126878D01*
X133182Y125747D01*
X133619Y124694D01*
X134313Y123789D01*
X135217Y123095D01*
X136271Y122659D01*
X137402Y122510D01*
X138532Y122659D01*
X139586Y123095D01*
X140490Y123789D01*
X141184Y124694D01*
X141621Y125747D01*
X141770Y126878D01*
X141621Y128008D01*
X141184Y129062D01*
X140490Y129967D01*
X139586Y130661D01*
X138806Y130983D01*
Y135539D01*
X138700Y136077D01*
X138395Y136533D01*
X132096Y142832D01*
X131640Y143137D01*
X131102Y143244D01*
X126968D01*
X123854Y146358D01*
Y152838D01*
X125402D01*
X125703Y152962D01*
X125828Y153264D01*
Y161138D01*
X125703Y161439D01*
X125402Y161564D01*
D02*
G37*
G36*
X157291D02*
X151386D01*
X151084Y161439D01*
X150960Y161138D01*
Y153264D01*
X151084Y152962D01*
X151386Y152838D01*
X152934D01*
Y139075D01*
X153041Y138537D01*
X153345Y138081D01*
X165534Y125892D01*
X165990Y125588D01*
X166528Y125481D01*
X177398D01*
X177721Y124702D01*
X178415Y123797D01*
X179320Y123103D01*
X180373Y122667D01*
X181504Y122518D01*
X182634Y122667D01*
X183688Y123103D01*
X184593Y123797D01*
X185287Y124702D01*
X185723Y125755D01*
X185872Y126886D01*
X185723Y128016D01*
X185287Y129070D01*
X184593Y129974D01*
X183688Y130669D01*
X182634Y131105D01*
X181504Y131254D01*
X180373Y131105D01*
X179320Y130669D01*
X178415Y129974D01*
X177721Y129070D01*
X177398Y128291D01*
X167110D01*
X155744Y139657D01*
Y152838D01*
X157291D01*
X157593Y152962D01*
X157718Y153264D01*
Y161138D01*
X157593Y161439D01*
X157291Y161564D01*
D02*
G37*
G36*
X200591Y126386D02*
X196177D01*
Y121972D01*
X196966Y122076D01*
X198167Y122573D01*
X199198Y123365D01*
X199990Y124396D01*
X200487Y125597D01*
X200591Y126386D01*
D02*
G37*
G36*
X156489Y126378D02*
X152075D01*
Y121964D01*
X152864Y122068D01*
X154065Y122565D01*
X155096Y123357D01*
X155887Y124388D01*
X156385Y125589D01*
X156489Y126378D01*
D02*
G37*
G36*
X195177Y126386D02*
X190763D01*
X190867Y125597D01*
X191365Y124396D01*
X192156Y123365D01*
X193187Y122573D01*
X194388Y122076D01*
X195177Y121972D01*
Y126386D01*
D02*
G37*
G36*
X222512Y126673D02*
X220480D01*
Y124642D01*
X220653Y124665D01*
X221279Y124924D01*
X221817Y125337D01*
X222229Y125875D01*
X222489Y126501D01*
X222512Y126673D01*
D02*
G37*
G36*
X264756Y126969D02*
X262725D01*
X262747Y126796D01*
X263007Y126170D01*
X263420Y125632D01*
X263957Y125219D01*
X264584Y124960D01*
X264756Y124937D01*
Y126969D01*
D02*
G37*
G36*
X219480Y126673D02*
X217449D01*
X217472Y126501D01*
X217731Y125875D01*
X218144Y125337D01*
X218682Y124924D01*
X219308Y124665D01*
X219480Y124642D01*
Y126673D01*
D02*
G37*
G36*
X247425Y125353D02*
X247074Y125283D01*
X246353Y124801D01*
X245871Y124079D01*
X245801Y123728D01*
X247425D01*
Y125353D01*
D02*
G37*
G36*
X248425D02*
Y123728D01*
X250050D01*
X249980Y124079D01*
X249498Y124801D01*
X248776Y125283D01*
X248425Y125353D01*
D02*
G37*
G36*
X247539Y116243D02*
X246905Y116160D01*
X245847Y115722D01*
X244939Y115025D01*
X244243Y114117D01*
X243805Y113060D01*
X243721Y112425D01*
X247539D01*
Y116243D01*
D02*
G37*
G36*
X295988Y116941D02*
X294520D01*
X294129Y116863D01*
X293799Y116642D01*
X293578Y116311D01*
X293500Y115921D01*
Y112878D01*
X295988D01*
Y116941D01*
D02*
G37*
G36*
X299476Y111878D02*
X296988D01*
Y107815D01*
X298457D01*
X298847Y107893D01*
X299178Y108114D01*
X299399Y108444D01*
X299476Y108835D01*
Y111878D01*
D02*
G37*
G36*
X247539Y111425D02*
X243721D01*
X243805Y110791D01*
X244243Y109733D01*
X244939Y108825D01*
X245847Y108129D01*
X246905Y107691D01*
X247539Y107607D01*
Y111425D01*
D02*
G37*
G36*
X295988Y111878D02*
X293500D01*
Y108835D01*
X293578Y108444D01*
X293799Y108114D01*
X294129Y107893D01*
X294520Y107815D01*
X295988D01*
Y111878D01*
D02*
G37*
G36*
X112598Y121437D02*
X112578Y121428D01*
X112557Y121435D01*
X111013Y121283D01*
X110975Y121262D01*
X110931Y121266D01*
X109447Y120816D01*
X109413Y120788D01*
X109370Y120784D01*
X108002Y120053D01*
X107974Y120019D01*
X107932Y120007D01*
X106733Y119023D01*
X106713Y118984D01*
X106674Y118964D01*
X105690Y117764D01*
X105678Y117723D01*
X105644Y117695D01*
X104913Y116327D01*
X104909Y116284D01*
X104881Y116250D01*
X104430Y114766D01*
X104435Y114722D01*
X104414Y114684D01*
X104262Y113140D01*
X104275Y113098D01*
X104262Y113057D01*
X104414Y111513D01*
X104435Y111475D01*
X104430Y111431D01*
X104881Y109947D01*
X104909Y109913D01*
X104913Y109870D01*
X105644Y108502D01*
X105678Y108474D01*
X105690Y108432D01*
X106674Y107233D01*
X106713Y107213D01*
X106733Y107174D01*
X107932Y106190D01*
X107974Y106178D01*
X108002Y106144D01*
X109370Y105413D01*
X109413Y105409D01*
X109447Y105381D01*
X110931Y104930D01*
X110975Y104935D01*
X111013Y104914D01*
X112557Y104762D01*
X112578Y104769D01*
X112598Y104760D01*
X112619Y104769D01*
X112640Y104762D01*
X114184Y104914D01*
X114222Y104935D01*
X114266Y104930D01*
X115750Y105381D01*
X115784Y105409D01*
X115827Y105413D01*
X117195Y106144D01*
X117223Y106178D01*
X117264Y106190D01*
X118464Y107174D01*
X118484Y107213D01*
X118523Y107233D01*
X119507Y108432D01*
X119519Y108474D01*
X119553Y108502D01*
X120284Y109870D01*
X120288Y109913D01*
X120316Y109947D01*
X120766Y111431D01*
X120762Y111475D01*
X120783Y111513D01*
X120935Y113057D01*
X120922Y113098D01*
X120935Y113140D01*
X120783Y114684D01*
X120762Y114722D01*
X120766Y114766D01*
X120316Y116250D01*
X120288Y116284D01*
X120284Y116327D01*
X119553Y117695D01*
X119519Y117723D01*
X119507Y117764D01*
X118523Y118964D01*
X118484Y118984D01*
X118464Y119023D01*
X117264Y120007D01*
X117223Y120019D01*
X117195Y120053D01*
X115827Y120784D01*
X115784Y120788D01*
X115750Y120816D01*
X114266Y121266D01*
X114222Y121262D01*
X114184Y121283D01*
X112640Y121435D01*
X112619Y121428D01*
X112598Y121437D01*
D02*
G37*
G36*
X151075Y126378D02*
X146661D01*
X146765Y125589D01*
X147262Y124388D01*
X148054Y123357D01*
X149085Y122565D01*
X150286Y122068D01*
X151075Y121964D01*
Y126378D01*
D02*
G37*
G36*
X250050Y122728D02*
X248425D01*
Y121104D01*
X248776Y121174D01*
X249498Y121656D01*
X249980Y122377D01*
X250050Y122728D01*
D02*
G37*
G36*
X298457Y116941D02*
X296988D01*
Y112878D01*
X299476D01*
Y115921D01*
X299399Y116311D01*
X299178Y116642D01*
X298847Y116863D01*
X298457Y116941D01*
D02*
G37*
G36*
X247425Y122728D02*
X245801D01*
X245871Y122377D01*
X246353Y121656D01*
X247074Y121174D01*
X247425Y121104D01*
Y122728D01*
D02*
G37*
G36*
X268905Y136862D02*
X265862D01*
Y134079D01*
X269925D01*
Y135843D01*
X269847Y136233D01*
X269626Y136564D01*
X269296Y136785D01*
X268905Y136862D01*
D02*
G37*
G36*
X279035D02*
X275992D01*
X275602Y136785D01*
X275271Y136564D01*
X275050Y136233D01*
X274973Y135843D01*
Y134079D01*
X279035D01*
Y136862D01*
D02*
G37*
G36*
X264862D02*
X261819D01*
X261429Y136785D01*
X261098Y136564D01*
X260877Y136233D01*
X260799Y135843D01*
Y134079D01*
X264862D01*
Y136862D01*
D02*
G37*
G36*
X248173Y131898D02*
X246965D01*
Y130394D01*
X247153D01*
X247544Y130471D01*
X247874Y130692D01*
X248095Y131023D01*
X248173Y131413D01*
Y131898D01*
D02*
G37*
G36*
X308079Y141525D02*
X301386D01*
X301084Y141400D01*
X300960Y141098D01*
Y134406D01*
X301084Y134104D01*
X301386Y133979D01*
X308079D01*
X308380Y134104D01*
X308505Y134406D01*
Y141098D01*
X308380Y141400D01*
X308079Y141525D01*
D02*
G37*
G36*
X116347Y198847D02*
X109653D01*
X109352Y198723D01*
X109227Y198421D01*
Y191728D01*
X109352Y191427D01*
X109653Y191302D01*
X111595D01*
Y178150D01*
X111702Y177612D01*
X112006Y177156D01*
X117412Y171751D01*
X117868Y171446D01*
X118405Y171339D01*
X129930D01*
X135217Y166052D01*
Y161564D01*
X133669D01*
X133368Y161439D01*
X133243Y161138D01*
Y153264D01*
X133368Y152962D01*
X133669Y152838D01*
X135217D01*
Y150394D01*
X135324Y149856D01*
X135629Y149400D01*
X139361Y145668D01*
X139817Y145363D01*
X140354Y145256D01*
X147339D01*
X147734Y144993D01*
X148425Y144855D01*
X149117Y144993D01*
X149703Y145384D01*
X150094Y145970D01*
X150232Y146661D01*
X150094Y147353D01*
X149703Y147939D01*
X149117Y148330D01*
X148425Y148468D01*
X147734Y148330D01*
X147339Y148066D01*
X140936D01*
X138027Y150976D01*
Y152838D01*
X139575D01*
X139876Y152962D01*
X140001Y153264D01*
Y161138D01*
X139876Y161439D01*
X139575Y161564D01*
X138027D01*
Y166634D01*
X137920Y167172D01*
X137616Y167627D01*
X131505Y173738D01*
X131050Y174042D01*
X130512Y174149D01*
X118988D01*
X114405Y178732D01*
Y191302D01*
X116347D01*
X116648Y191427D01*
X116773Y191728D01*
Y198421D01*
X116648Y198723D01*
X116347Y198847D01*
D02*
G37*
G36*
X304232Y152070D02*
X303598Y151987D01*
X302540Y151549D01*
X301632Y150852D01*
X300936Y149944D01*
X300498Y148887D01*
X300414Y148252D01*
X304232D01*
Y152070D01*
D02*
G37*
G36*
Y147252D02*
X300414D01*
X300498Y146617D01*
X300936Y145560D01*
X301632Y144652D01*
X302540Y143955D01*
X303598Y143517D01*
X304232Y143434D01*
Y147252D01*
D02*
G37*
G36*
X283079Y136862D02*
X280035D01*
Y134079D01*
X284098D01*
Y135843D01*
X284021Y136233D01*
X283800Y136564D01*
X283469Y136785D01*
X283079Y136862D01*
D02*
G37*
G36*
X309050Y147252D02*
X305232D01*
Y143434D01*
X305867Y143517D01*
X306924Y143955D01*
X307832Y144652D01*
X308529Y145560D01*
X308967Y146617D01*
X309050Y147252D01*
D02*
G37*
G36*
X195177Y131800D02*
X194388Y131696D01*
X193187Y131198D01*
X192156Y130407D01*
X191365Y129376D01*
X190867Y128175D01*
X190763Y127386D01*
X195177D01*
Y131800D01*
D02*
G37*
G36*
X196177D02*
Y127386D01*
X200591D01*
X200487Y128175D01*
X199990Y129376D01*
X199198Y130407D01*
X198167Y131198D01*
X196966Y131696D01*
X196177Y131800D01*
D02*
G37*
G36*
X152075Y131792D02*
Y127378D01*
X156489D01*
X156385Y128167D01*
X155887Y129368D01*
X155096Y130399D01*
X154065Y131190D01*
X152864Y131688D01*
X152075Y131792D01*
D02*
G37*
G36*
X267787Y126969D02*
X265756D01*
Y124937D01*
X265928Y124960D01*
X266554Y125219D01*
X267092Y125632D01*
X267505Y126170D01*
X267764Y126796D01*
X267787Y126969D01*
D02*
G37*
G36*
X151075Y131792D02*
X150286Y131688D01*
X149085Y131190D01*
X148054Y130399D01*
X147262Y129368D01*
X146765Y128167D01*
X146661Y127378D01*
X151075D01*
Y131792D01*
D02*
G37*
G36*
X279035Y133079D02*
X274973D01*
Y131315D01*
X275050Y130925D01*
X275271Y130594D01*
X275602Y130373D01*
X275992Y130295D01*
X279035D01*
Y133079D01*
D02*
G37*
G36*
X284098D02*
X280035D01*
Y130295D01*
X283079D01*
X283469Y130373D01*
X283800Y130594D01*
X284021Y130925D01*
X284098Y131315D01*
Y133079D01*
D02*
G37*
G36*
X269925D02*
X260799D01*
Y131315D01*
X260877Y130925D01*
X261098Y130594D01*
X261429Y130373D01*
X261819Y130295D01*
X264046D01*
X264145Y129795D01*
X263957Y129718D01*
X263420Y129305D01*
X263007Y128767D01*
X262747Y128141D01*
X262725Y127969D01*
X267787D01*
X267764Y128141D01*
X267505Y128767D01*
X267092Y129305D01*
X266554Y129718D01*
X266367Y129795D01*
X266466Y130295D01*
X268905D01*
X269296Y130373D01*
X269626Y130594D01*
X269847Y130925D01*
X269925Y131315D01*
Y133079D01*
D02*
G37*
G36*
X219480Y129704D02*
X219308Y129682D01*
X218682Y129422D01*
X218144Y129010D01*
X217731Y128472D01*
X217472Y127845D01*
X217449Y127673D01*
X219480D01*
Y129704D01*
D02*
G37*
G36*
X220480D02*
Y127673D01*
X222512D01*
X222489Y127845D01*
X222229Y128472D01*
X221817Y129010D01*
X221279Y129422D01*
X220653Y129682D01*
X220480Y129704D01*
D02*
G37*
G36*
X216839Y238535D02*
X215075D01*
Y234472D01*
X217858D01*
Y237516D01*
X217781Y237906D01*
X217560Y238237D01*
X217229Y238458D01*
X216839Y238535D01*
D02*
G37*
G36*
X151795Y325205D02*
X149406D01*
Y319567D01*
X150776D01*
X151166Y319645D01*
X151497Y319866D01*
X151718Y320196D01*
X151795Y320587D01*
Y325205D01*
D02*
G37*
G36*
X148406Y331842D02*
X147035D01*
X146645Y331765D01*
X146315Y331544D01*
X146093Y331213D01*
X146016Y330823D01*
Y326205D01*
X148406D01*
Y331842D01*
D02*
G37*
G36*
Y325205D02*
X146016D01*
Y320587D01*
X146093Y320196D01*
X146315Y319866D01*
X146645Y319645D01*
X147035Y319567D01*
X148406D01*
Y325205D01*
D02*
G37*
G36*
X184539Y322484D02*
X182776D01*
X182385Y322407D01*
X182055Y322185D01*
X181834Y321855D01*
X181756Y321465D01*
Y318421D01*
X184539D01*
Y322484D01*
D02*
G37*
G36*
X187303D02*
X185539D01*
Y318421D01*
X188323D01*
Y321465D01*
X188245Y321855D01*
X188024Y322185D01*
X187693Y322407D01*
X187303Y322484D01*
D02*
G37*
G36*
X225886Y337409D02*
X223102D01*
Y334366D01*
X223180Y333976D01*
X223401Y333645D01*
X223732Y333424D01*
X224122Y333347D01*
X225886D01*
Y337409D01*
D02*
G37*
G36*
X229669D02*
X226886D01*
Y333347D01*
X228650D01*
X229040Y333424D01*
X229371Y333645D01*
X229592Y333976D01*
X229669Y334366D01*
Y337409D01*
D02*
G37*
G36*
X188331Y337016D02*
X185547D01*
Y332953D01*
X187311D01*
X187701Y333031D01*
X188032Y333252D01*
X188253Y333582D01*
X188331Y333972D01*
Y337016D01*
D02*
G37*
G36*
X150776Y331842D02*
X149406D01*
Y326205D01*
X151795D01*
Y330823D01*
X151718Y331213D01*
X151497Y331544D01*
X151166Y331765D01*
X150776Y331842D01*
D02*
G37*
G36*
X184547Y337016D02*
X181764D01*
Y333972D01*
X181842Y333582D01*
X182062Y333252D01*
X182393Y333031D01*
X182783Y332953D01*
X184547D01*
Y337016D01*
D02*
G37*
G36*
X188323Y317421D02*
X185539D01*
Y313358D01*
X187303D01*
X187693Y313436D01*
X188024Y313657D01*
X188245Y313988D01*
X188323Y314378D01*
Y317421D01*
D02*
G37*
G36*
X156933Y303945D02*
X152870D01*
Y301004D01*
X155913D01*
X156304Y301082D01*
X156634Y301303D01*
X156855Y301633D01*
X156933Y302024D01*
Y303945D01*
D02*
G37*
G36*
X256594Y305726D02*
X253839D01*
X253537Y305602D01*
X253412Y305300D01*
Y303930D01*
X252912Y303552D01*
X252854Y303564D01*
X250992D01*
Y299788D01*
Y296013D01*
X252854D01*
X253244Y296091D01*
X253575Y296311D01*
X253796Y296642D01*
X253874Y297032D01*
Y298575D01*
X256594D01*
X256896Y298700D01*
X257021Y299001D01*
Y305300D01*
X256896Y305602D01*
X256594Y305726D01*
D02*
G37*
G36*
X151870Y303945D02*
X147807D01*
Y302024D01*
X147885Y301633D01*
X148106Y301303D01*
X148437Y301082D01*
X148827Y301004D01*
X151870D01*
Y303945D01*
D02*
G37*
G36*
X307472Y303958D02*
X304823D01*
X304433Y303880D01*
X304102Y303659D01*
X303881Y303328D01*
X303803Y302938D01*
Y300682D01*
X307472D01*
Y303958D01*
D02*
G37*
G36*
X311122D02*
X308472D01*
Y300682D01*
X312142D01*
Y302938D01*
X312064Y303328D01*
X311843Y303659D01*
X311512Y303880D01*
X311122Y303958D01*
D02*
G37*
G36*
X267709Y306320D02*
X266831D01*
X266441Y306242D01*
X266110Y306021D01*
X265982Y305830D01*
X265714Y305686D01*
X265376Y305677D01*
X265256Y305726D01*
X262500D01*
X262199Y305602D01*
X262074Y305300D01*
Y299001D01*
X262199Y298700D01*
X262500Y298575D01*
X262976D01*
Y263010D01*
X262535Y262774D01*
X262444Y262835D01*
X262361Y262852D01*
X262290Y262899D01*
X261599Y263036D01*
X261556Y263028D01*
X261516Y263045D01*
X261475Y263028D01*
X261433Y263036D01*
X260741Y262899D01*
X260671Y262852D01*
X260588Y262835D01*
X260002Y262444D01*
X259955Y262373D01*
X259884Y262326D01*
X259493Y261740D01*
X259476Y261657D01*
X259429Y261586D01*
X259291Y260895D01*
X259308Y260812D01*
X259291Y260729D01*
X259429Y260038D01*
X259476Y259967D01*
X259493Y259884D01*
X259884Y259298D01*
X259955Y259251D01*
X260002Y259180D01*
X260588Y258789D01*
X260671Y258772D01*
X260741Y258725D01*
X261433Y258588D01*
X261475Y258596D01*
X261516Y258579D01*
X261556Y258596D01*
X261599Y258588D01*
X262290Y258725D01*
X262361Y258772D01*
X262444Y258789D01*
X262535Y258850D01*
X262976Y258614D01*
Y228265D01*
X251233Y216522D01*
X250969Y216574D01*
X250354Y216452D01*
X249833Y216104D01*
X249485Y215583D01*
X249363Y214968D01*
X249485Y214354D01*
X249833Y213833D01*
X250354Y213485D01*
X250969Y213363D01*
X251583Y213485D01*
X252104Y213833D01*
X252452Y214354D01*
X252574Y214968D01*
X252522Y215233D01*
X264532Y227243D01*
X264729Y227539D01*
X264799Y227887D01*
Y298575D01*
X265256D01*
X265376Y298625D01*
X265714Y298616D01*
X265982Y298471D01*
X266110Y298280D01*
X266441Y298059D01*
X266831Y297981D01*
X267709D01*
Y302151D01*
Y306320D01*
D02*
G37*
G36*
X184539Y317421D02*
X181756D01*
Y314378D01*
X181834Y313988D01*
X182055Y313657D01*
X182385Y313436D01*
X182776Y313358D01*
X184539D01*
Y317421D01*
D02*
G37*
G36*
X116831Y309401D02*
X115067D01*
X114677Y309324D01*
X114346Y309103D01*
X114125Y308772D01*
X114047Y308382D01*
Y305339D01*
X116831D01*
Y309401D01*
D02*
G37*
G36*
X151870Y307886D02*
X148827D01*
X148437Y307808D01*
X148106Y307587D01*
X147885Y307256D01*
X147807Y306866D01*
Y304945D01*
X151870D01*
Y307886D01*
D02*
G37*
G36*
X155913D02*
X152870D01*
Y304945D01*
X156933D01*
Y306866D01*
X156855Y307256D01*
X156634Y307587D01*
X156304Y307808D01*
X155913Y307886D01*
D02*
G37*
G36*
X184547Y342079D02*
X182783D01*
X182393Y342001D01*
X182062Y341780D01*
X181842Y341449D01*
X181764Y341059D01*
Y338016D01*
X184547D01*
Y342079D01*
D02*
G37*
G36*
X228650Y360976D02*
X226886D01*
Y356913D01*
X229669D01*
Y359957D01*
X229592Y360347D01*
X229371Y360678D01*
X229040Y360899D01*
X228650Y360976D01*
D02*
G37*
G36*
X274401Y360799D02*
X270583D01*
Y356981D01*
X271217Y357065D01*
X272275Y357503D01*
X273183Y358199D01*
X273879Y359107D01*
X274317Y360165D01*
X274401Y360799D01*
D02*
G37*
G36*
X225886Y360976D02*
X224122D01*
X223732Y360899D01*
X223401Y360678D01*
X223180Y360347D01*
X223102Y359957D01*
Y356913D01*
X225886D01*
Y360976D01*
D02*
G37*
G36*
X184343Y360870D02*
X182579D01*
X182189Y360792D01*
X181858Y360571D01*
X181637Y360241D01*
X181559Y359850D01*
Y356807D01*
X184343D01*
Y360870D01*
D02*
G37*
G36*
X187106D02*
X185343D01*
Y356807D01*
X188126D01*
Y359850D01*
X188048Y360241D01*
X187827Y360571D01*
X187496Y360792D01*
X187106Y360870D01*
D02*
G37*
G36*
X215453Y363328D02*
X195472D01*
X195464Y363324D01*
X195455Y363327D01*
X195315Y363262D01*
X195171Y363203D01*
X195168Y363194D01*
X195159Y363191D01*
X193984Y361917D01*
X192710Y360644D01*
X192586Y360343D01*
Y313000D01*
X192586Y313000D01*
X192710Y312699D01*
X196082Y309327D01*
X196141Y309239D01*
X203721Y301659D01*
Y289301D01*
X199241Y284822D01*
X194377Y279958D01*
X194159Y279632D01*
X194083Y279248D01*
Y272849D01*
X193618Y272504D01*
Y269996D01*
X192618D01*
Y272471D01*
X192561Y272460D01*
X192061Y272787D01*
Y281823D01*
X197503Y287265D01*
X197700Y287561D01*
X197769Y287909D01*
Y292995D01*
X199122D01*
X199423Y293120D01*
X199548Y293421D01*
Y300508D01*
X199423Y300809D01*
X199122Y300934D01*
X194595D01*
X194293Y300809D01*
X194168Y300508D01*
Y293421D01*
X194293Y293120D01*
X194595Y292995D01*
X195947D01*
Y288287D01*
X190505Y282845D01*
X190308Y282550D01*
X190238Y282201D01*
Y272787D01*
X189738Y272460D01*
X189681Y272471D01*
Y269996D01*
X188681D01*
Y272471D01*
X188397Y272414D01*
X188066Y272193D01*
X187845Y271863D01*
X187779Y271827D01*
X187606Y271899D01*
X186819D01*
X186518Y271774D01*
X186393Y271472D01*
Y268520D01*
X186456Y268367D01*
X186456Y268367D01*
X186086Y267997D01*
X186086Y267997D01*
X185933Y268060D01*
X184838D01*
X184805Y268082D01*
X184457Y268151D01*
X172153D01*
X171805Y268082D01*
X171509Y267884D01*
X167958Y264333D01*
X167761Y264038D01*
X167691Y263689D01*
Y259009D01*
X167414Y258595D01*
X167292Y257980D01*
X167414Y257366D01*
X167762Y256845D01*
X168283Y256497D01*
X168898Y256375D01*
X169512Y256497D01*
X170033Y256845D01*
X170381Y257366D01*
X170503Y257980D01*
X170381Y258595D01*
X170033Y259116D01*
X169514Y259463D01*
Y263312D01*
X172531Y266329D01*
X182388D01*
X182622Y265829D01*
X182554Y265665D01*
Y264878D01*
X182679Y264577D01*
X182724Y264558D01*
Y264017D01*
X182679Y263998D01*
X182554Y263697D01*
Y262909D01*
X182679Y262608D01*
X182724Y262590D01*
Y262048D01*
X182679Y262030D01*
X182554Y261728D01*
Y260941D01*
X182679Y260640D01*
X182724Y260621D01*
Y260080D01*
X182679Y260061D01*
X182554Y259760D01*
Y258972D01*
X182626Y258800D01*
X182590Y258733D01*
X182259Y258512D01*
X182038Y258182D01*
X181982Y257898D01*
X184457D01*
Y257398D01*
X184957D01*
Y255984D01*
X185933D01*
X186393Y255566D01*
Y253165D01*
X186518Y252864D01*
X186819Y252739D01*
X187606D01*
X187770Y252807D01*
X188270Y252573D01*
Y251279D01*
X183411Y246420D01*
X183213Y246124D01*
X183144Y245776D01*
Y244922D01*
X181791D01*
X181490Y244797D01*
X181365Y244496D01*
Y237409D01*
X181490Y237108D01*
X181791Y236983D01*
X186319D01*
X186620Y237108D01*
X186745Y237409D01*
Y244496D01*
X186620Y244797D01*
X186319Y244922D01*
X185024D01*
X184990Y245422D01*
X189825Y250257D01*
X190023Y250553D01*
X190092Y250902D01*
Y252573D01*
X190592Y252807D01*
X190756Y252739D01*
X191543D01*
X191845Y252864D01*
X191863Y252909D01*
X192404D01*
X192423Y252864D01*
X192724Y252739D01*
X193512D01*
X193675Y252807D01*
X194175Y252573D01*
Y245965D01*
X194245Y245616D01*
X194442Y245320D01*
X197924Y241839D01*
X189278Y233193D01*
X172968D01*
X172816Y233693D01*
X173226Y233967D01*
X173708Y234688D01*
X173778Y235039D01*
X169529D01*
X169599Y234688D01*
X170081Y233967D01*
X170491Y233693D01*
X170339Y233193D01*
X169580D01*
X165970Y236803D01*
Y260244D01*
X165901Y260593D01*
X165703Y260888D01*
X162448Y264144D01*
X162152Y264342D01*
X161803Y264411D01*
X158702D01*
Y265469D01*
X158577Y265770D01*
X158276Y265895D01*
X151189D01*
X150888Y265770D01*
X150763Y265469D01*
Y261531D01*
X150888Y261230D01*
X151189Y261105D01*
X158276D01*
X158577Y261230D01*
X158702Y261531D01*
Y262589D01*
X161426D01*
X164148Y259867D01*
Y236425D01*
X164217Y236076D01*
X164415Y235781D01*
X168558Y231638D01*
X168708Y231537D01*
X168557Y231037D01*
X166814D01*
X162329Y235523D01*
Y254831D01*
X162259Y255179D01*
X162062Y255475D01*
X157337Y260199D01*
X157042Y260397D01*
X156693Y260466D01*
X146933D01*
X143255Y264144D01*
X142959Y264342D01*
X142610Y264411D01*
X138229D01*
Y265469D01*
X138104Y265770D01*
X137803Y265895D01*
X130717D01*
X130415Y265770D01*
X130290Y265469D01*
Y261531D01*
X130415Y261230D01*
X130717Y261105D01*
X137803D01*
X138104Y261230D01*
X138229Y261531D01*
Y262589D01*
X142233D01*
X145911Y258911D01*
X146206Y258713D01*
X146555Y258644D01*
X156316D01*
X160506Y254453D01*
Y235146D01*
X160575Y234797D01*
X160773Y234501D01*
X165793Y229482D01*
X165798Y229478D01*
X165646Y228978D01*
X159095D01*
Y230331D01*
X158971Y230632D01*
X158669Y230757D01*
X151583D01*
X151281Y230632D01*
X151156Y230331D01*
Y225803D01*
X151281Y225502D01*
X151583Y225377D01*
X158669D01*
X158971Y225502D01*
X159095Y225803D01*
Y227156D01*
X170268D01*
X170420Y226656D01*
X170113Y226450D01*
X169631Y225729D01*
X169561Y225378D01*
X171685D01*
Y224878D01*
X172185D01*
Y222754D01*
X172295Y222776D01*
X172367Y222766D01*
X172794Y222503D01*
X172851Y222432D01*
X172873Y222322D01*
X173094Y221992D01*
X173425Y221771D01*
X173815Y221693D01*
X175874D01*
Y224878D01*
X176374D01*
Y225378D01*
X179953D01*
Y227043D01*
X180045Y227156D01*
X182306D01*
X182381Y227043D01*
Y222713D01*
X182506Y222411D01*
X182807Y222287D01*
X187925D01*
X188226Y222411D01*
X188351Y222713D01*
Y223967D01*
X192583D01*
X196341Y220209D01*
Y212319D01*
X196410Y211970D01*
X196608Y211675D01*
X200447Y207835D01*
X200428Y207741D01*
X200008Y207325D01*
X180307D01*
X177285Y210346D01*
Y214779D01*
X178933D01*
X179234Y214903D01*
X179359Y215205D01*
Y219535D01*
X179234Y219837D01*
X178933Y219962D01*
X173815D01*
X173514Y219837D01*
X173389Y219535D01*
Y218281D01*
X170137D01*
X164235Y224184D01*
X163939Y224381D01*
X163591Y224451D01*
X143889D01*
X139629Y228711D01*
X139333Y228909D01*
X138984Y228978D01*
X138623D01*
Y230331D01*
X138498Y230632D01*
X138197Y230757D01*
X131110D01*
X130809Y230632D01*
X130684Y230331D01*
Y225803D01*
X130809Y225502D01*
X131110Y225377D01*
X138197D01*
X138498Y225502D01*
X138623Y225803D01*
Y226486D01*
X139085Y226678D01*
X142868Y222895D01*
X143163Y222697D01*
X143512Y222628D01*
X163213D01*
X169115Y216726D01*
X169411Y216528D01*
X169760Y216459D01*
X173389D01*
Y215205D01*
X173514Y214903D01*
X173815Y214779D01*
X175463D01*
Y209968D01*
X175532Y209620D01*
X175730Y209324D01*
X179285Y205769D01*
X179580Y205572D01*
X179929Y205502D01*
X199630D01*
X218424Y186709D01*
X218352Y186223D01*
X218285Y186140D01*
X218025Y186142D01*
X199963Y204203D01*
X199668Y204401D01*
X199319Y204470D01*
X179027D01*
X163054Y220444D01*
X162758Y220641D01*
X162409Y220710D01*
X130208D01*
X125199Y225719D01*
X124904Y225917D01*
X124555Y225986D01*
X116653D01*
X116644Y226051D01*
X116267Y226961D01*
X115667Y227742D01*
X114886Y228342D01*
X113976Y228719D01*
X113000Y228847D01*
X112024Y228719D01*
X111114Y228342D01*
X110333Y227742D01*
X109733Y226961D01*
X109356Y226051D01*
X109228Y225075D01*
X109356Y224098D01*
X109733Y223189D01*
X110333Y222407D01*
X111114Y221808D01*
X112024Y221431D01*
X113000Y221302D01*
X113976Y221431D01*
X114886Y221808D01*
X115667Y222407D01*
X116267Y223189D01*
X116644Y224098D01*
X116653Y224164D01*
X124178D01*
X129186Y219155D01*
X129482Y218957D01*
X129661Y218922D01*
X130091Y218520D01*
Y216756D01*
X134653D01*
X139216D01*
Y218520D01*
X139519Y218888D01*
X150261D01*
X150563Y218520D01*
Y216756D01*
X155126D01*
Y216256D01*
X155626D01*
Y212972D01*
X158669D01*
X159060Y213050D01*
X159390Y213271D01*
X159611Y213602D01*
X159689Y213992D01*
Y214178D01*
X160189Y214446D01*
X160566Y214194D01*
X160917Y214124D01*
Y216248D01*
X161417D01*
Y216748D01*
X163740D01*
X164022Y216898D01*
X178005Y202915D01*
X178301Y202717D01*
X178650Y202648D01*
X198942D01*
X216959Y184631D01*
X216906Y184366D01*
X217028Y183752D01*
X217376Y183231D01*
X217690Y183021D01*
X217538Y182521D01*
X192560D01*
Y183972D01*
X192435Y184274D01*
X192134Y184399D01*
X185047D01*
X184746Y184274D01*
X184621Y183972D01*
Y182915D01*
X168150D01*
Y183972D01*
X168026Y184274D01*
X167724Y184399D01*
X160638D01*
X160336Y184274D01*
X160212Y183972D01*
Y182915D01*
X139804D01*
Y184268D01*
X139679Y184569D01*
X139378Y184694D01*
X132291D01*
X131990Y184569D01*
X131865Y184268D01*
Y179740D01*
X131990Y179439D01*
X132291Y179314D01*
X139378D01*
X139679Y179439D01*
X139804Y179740D01*
Y181093D01*
X160212D01*
Y180035D01*
X160336Y179734D01*
X160638Y179609D01*
X163800D01*
X163832Y179587D01*
X164181Y179518D01*
X164530Y179587D01*
X164563Y179609D01*
X167724D01*
X168026Y179734D01*
X168150Y180035D01*
Y181093D01*
X184621D01*
Y180035D01*
X184746Y179734D01*
X185047Y179609D01*
X187679D01*
Y161556D01*
X186614D01*
X186313Y161431D01*
X186188Y161130D01*
Y154043D01*
X186313Y153742D01*
X186614Y153617D01*
X190551D01*
X190852Y153742D01*
X190977Y154043D01*
Y161130D01*
X190852Y161431D01*
X190551Y161556D01*
X189502D01*
Y179609D01*
X192134D01*
X192435Y179734D01*
X192560Y180035D01*
Y180699D01*
X208125D01*
X209825Y178823D01*
Y170488D01*
X209894Y170140D01*
X210092Y169844D01*
X227128Y152808D01*
Y115578D01*
X227063Y115569D01*
X226153Y115192D01*
X225372Y114593D01*
X224772Y113811D01*
X224395Y112902D01*
X224267Y111925D01*
X224395Y110949D01*
X224772Y110039D01*
X225372Y109258D01*
X226153Y108658D01*
X227063Y108281D01*
X228039Y108153D01*
X229016Y108281D01*
X229926Y108658D01*
X230707Y109258D01*
X230975Y109607D01*
X231475Y109437D01*
Y108460D01*
X228371Y105356D01*
X140133D01*
X104462Y141027D01*
Y211154D01*
X107472Y214164D01*
X109347D01*
X109356Y214098D01*
X109733Y213189D01*
X110333Y212407D01*
X111114Y211808D01*
X112024Y211431D01*
X113000Y211302D01*
X113976Y211431D01*
X114886Y211808D01*
X115667Y212407D01*
X116267Y213189D01*
X116644Y214098D01*
X116772Y215075D01*
X116644Y216051D01*
X116267Y216961D01*
X115667Y217742D01*
X114886Y218342D01*
X113976Y218719D01*
X113000Y218847D01*
X112024Y218719D01*
X111114Y218342D01*
X110333Y217742D01*
X109733Y216961D01*
X109356Y216051D01*
X109347Y215986D01*
X107095D01*
X106746Y215917D01*
X106450Y215719D01*
X102907Y212176D01*
X102709Y211880D01*
X102640Y211531D01*
Y140650D01*
X102709Y140301D01*
X102907Y140005D01*
X139112Y103800D01*
X139407Y103603D01*
X139756Y103534D01*
X228748D01*
X229097Y103603D01*
X229392Y103801D01*
X233030Y107438D01*
X233228Y107734D01*
X233297Y108083D01*
Y114214D01*
X233228Y114562D01*
X233030Y114858D01*
X231703Y116186D01*
Y128289D01*
X232165Y128480D01*
X235190Y125454D01*
X235486Y125257D01*
X235835Y125187D01*
X242134D01*
X242483Y125257D01*
X242778Y125454D01*
X244550Y127226D01*
X244747Y127521D01*
X244817Y127870D01*
Y130250D01*
X245317Y130517D01*
X245385Y130471D01*
X245776Y130394D01*
X245965D01*
Y132398D01*
X246465D01*
Y132898D01*
X248173D01*
Y133382D01*
X248600Y133797D01*
X248675Y133812D01*
X248971Y134009D01*
X250152Y135190D01*
X250350Y135486D01*
X250419Y135835D01*
Y147071D01*
X250350Y147420D01*
X250152Y147715D01*
X249428Y148439D01*
X249593Y148981D01*
X249867Y149036D01*
X250588Y149518D01*
X249516Y150591D01*
X249016D01*
Y151091D01*
X248516D01*
Y153215D01*
X248165Y153145D01*
X247443Y152663D01*
X246961Y151942D01*
X246907Y151668D01*
X246364Y151503D01*
X244718Y153149D01*
Y162332D01*
X245185Y162680D01*
X246366D01*
X246668Y162805D01*
X246852Y162805D01*
X247153Y162680D01*
X248335D01*
X248636Y162805D01*
X248821Y162805D01*
X249122Y162680D01*
X250303D01*
X250467Y162571D01*
Y160939D01*
X250243Y160789D01*
X249894Y160268D01*
X249772Y159653D01*
X249894Y159039D01*
X250243Y158518D01*
X250764Y158170D01*
X251378Y158048D01*
X251992Y158170D01*
X252513Y158518D01*
X252861Y159039D01*
X252984Y159653D01*
X252861Y160268D01*
X252513Y160789D01*
X252289Y160939D01*
Y162687D01*
X252573Y162805D01*
X252758Y162805D01*
X253059Y162680D01*
X254110D01*
X254307Y162385D01*
X254637Y162164D01*
X255028Y162087D01*
X255118D01*
Y165961D01*
X256118D01*
Y162087D01*
X256209D01*
X256675Y161670D01*
Y157349D01*
X256587Y157217D01*
X256465Y156602D01*
X256587Y155988D01*
X256936Y155467D01*
X257456Y155119D01*
X258022Y155006D01*
X258132Y154830D01*
X258245Y154522D01*
X252702Y148979D01*
X252505Y148683D01*
X252435Y148335D01*
Y113977D01*
X251935Y113877D01*
X251836Y114117D01*
X251139Y115025D01*
X250231Y115722D01*
X249174Y116160D01*
X248539Y116243D01*
Y111925D01*
Y107607D01*
X249174Y107691D01*
X250231Y108129D01*
X251139Y108825D01*
X251836Y109733D01*
X251935Y109973D01*
X252435Y109873D01*
Y108456D01*
X248245Y104265D01*
X243980D01*
X240036Y108210D01*
X240134Y108818D01*
X240707Y109258D01*
X241306Y110039D01*
X241683Y110949D01*
X241812Y111925D01*
X241683Y112902D01*
X241306Y113811D01*
X240707Y114593D01*
X239926Y115192D01*
X239016Y115569D01*
X238039Y115698D01*
X237063Y115569D01*
X236153Y115192D01*
X235372Y114593D01*
X234772Y113811D01*
X234396Y112902D01*
X234267Y111925D01*
X234396Y110949D01*
X234772Y110039D01*
X235372Y109258D01*
X236153Y108658D01*
X237063Y108281D01*
X237436Y108232D01*
X242958Y102710D01*
X243254Y102513D01*
X243602Y102443D01*
X248622D01*
X248971Y102513D01*
X249266Y102710D01*
X253991Y107434D01*
X254188Y107730D01*
X254258Y108079D01*
Y109975D01*
X254758Y110074D01*
X254772Y110039D01*
X255372Y109258D01*
X256153Y108658D01*
X257063Y108281D01*
X258039Y108153D01*
X259016Y108281D01*
X259926Y108658D01*
X259978Y108698D01*
X264883Y103793D01*
X265179Y103595D01*
X265528Y103526D01*
X297642D01*
X297990Y103595D01*
X298286Y103793D01*
X315703Y121210D01*
X315901Y121506D01*
X315970Y121854D01*
Y217035D01*
X315901Y217384D01*
X315703Y217680D01*
X310388Y222995D01*
X310093Y223192D01*
X309744Y223262D01*
X296643D01*
X296491Y223762D01*
X296805Y223971D01*
X297153Y224492D01*
X297275Y225106D01*
X297153Y225721D01*
X296805Y226242D01*
X296581Y226391D01*
Y309457D01*
X296511Y309805D01*
X296314Y310101D01*
X293262Y313152D01*
X292967Y313350D01*
X292618Y313419D01*
X287133D01*
X280707Y319846D01*
Y328165D01*
X280637Y328514D01*
X280440Y328810D01*
X277227Y332022D01*
X276931Y332220D01*
X276583Y332289D01*
X273735D01*
X273727Y332354D01*
X273350Y333264D01*
X272750Y334045D01*
X271969Y334645D01*
X271059Y335022D01*
X270083Y335150D01*
X269106Y335022D01*
X268197Y334645D01*
X267415Y334045D01*
X266816Y333264D01*
X266439Y332354D01*
X266310Y331378D01*
X266439Y330402D01*
X266816Y329492D01*
X267415Y328710D01*
X268197Y328111D01*
X269106Y327734D01*
X270083Y327606D01*
X271059Y327734D01*
X271969Y328111D01*
X272750Y328710D01*
X273350Y329492D01*
X273727Y330402D01*
X273735Y330467D01*
X276205D01*
X278884Y327788D01*
Y319468D01*
X278953Y319120D01*
X279151Y318824D01*
X286112Y311863D01*
X286407Y311666D01*
X286756Y311597D01*
X292241D01*
X294758Y309079D01*
Y262890D01*
X294258Y262622D01*
X293940Y262835D01*
X293857Y262852D01*
X293786Y262899D01*
X293095Y263036D01*
X293052Y263028D01*
X293012Y263045D01*
X292971Y263028D01*
X292929Y263036D01*
X292237Y262899D01*
X292167Y262852D01*
X292084Y262835D01*
X291498Y262444D01*
X291451Y262373D01*
X291380Y262326D01*
X290989Y261740D01*
X290972Y261657D01*
X290925Y261586D01*
X290788Y260895D01*
X290804Y260812D01*
X290788Y260729D01*
X290925Y260038D01*
X290972Y259967D01*
X290989Y259884D01*
X291380Y259298D01*
X291451Y259251D01*
X291498Y259180D01*
X292084Y258789D01*
X292167Y258772D01*
X292237Y258725D01*
X292929Y258588D01*
X292971Y258596D01*
X293012Y258579D01*
X293052Y258596D01*
X293095Y258588D01*
X293786Y258725D01*
X293857Y258772D01*
X293940Y258789D01*
X294258Y259001D01*
X294758Y258734D01*
Y226391D01*
X294534Y226242D01*
X294186Y225721D01*
X294064Y225106D01*
X294186Y224492D01*
X294534Y223971D01*
X294847Y223762D01*
X294695Y223262D01*
X278839D01*
X278490Y223192D01*
X278194Y222995D01*
X264386Y209187D01*
X262697D01*
X262348Y209117D01*
X262052Y208920D01*
X256942Y203810D01*
X256745Y203514D01*
X256675Y203165D01*
Y202857D01*
X256209Y202509D01*
X255028D01*
X254726Y202384D01*
X254541Y202384D01*
X254240Y202509D01*
X253059D01*
X252665Y202408D01*
X252272Y202509D01*
X251091D01*
X250789Y202384D01*
X250605Y202384D01*
X250303Y202509D01*
X249122D01*
X248728Y202408D01*
X248335Y202509D01*
X247153D01*
X246760Y202408D01*
X246366Y202509D01*
X245185D01*
X245112Y202479D01*
X244612Y202766D01*
Y229995D01*
X245669D01*
X245971Y230120D01*
X246095Y230421D01*
Y237508D01*
X245971Y237809D01*
X245669Y237934D01*
X241732D01*
X241431Y237809D01*
X241306Y237508D01*
Y230421D01*
X241431Y230120D01*
X241732Y229995D01*
X242790D01*
Y202901D01*
X242429Y202509D01*
X241248D01*
X240947Y202384D01*
X240762Y202384D01*
X240461Y202509D01*
X239410D01*
X239213Y202804D01*
X238882Y203025D01*
X238492Y203102D01*
X238402D01*
Y199228D01*
Y195354D01*
X238492D01*
X238882Y195432D01*
X239213Y195653D01*
X239410Y195948D01*
X240461D01*
X240762Y196073D01*
X240947Y196073D01*
X241248Y195948D01*
X242429D01*
X242823Y196049D01*
X243217Y195948D01*
X244398D01*
X244699Y196073D01*
X244884Y196073D01*
X245185Y195948D01*
X246366D01*
X246760Y196049D01*
X247154Y195948D01*
X248335D01*
X248728Y196049D01*
X249122Y195948D01*
X250303D01*
X250605Y196073D01*
X250789Y196073D01*
X251091Y195948D01*
X252272D01*
X252665Y196049D01*
X253059Y195948D01*
X254240D01*
X254541Y196073D01*
X254726Y196073D01*
X255028Y195948D01*
X256209D01*
X256602Y196049D01*
X256996Y195948D01*
X258177D01*
X258478Y196073D01*
X258603Y196374D01*
Y202083D01*
X258498Y202337D01*
Y202788D01*
X263074Y207364D01*
X264764D01*
X265112Y207434D01*
X265408Y207631D01*
X279216Y221439D01*
X309367D01*
X314148Y216658D01*
Y122232D01*
X297264Y105348D01*
X265905D01*
X261266Y109987D01*
X261306Y110039D01*
X261683Y110949D01*
X261812Y111925D01*
X261683Y112902D01*
X261306Y113811D01*
X260707Y114593D01*
X259926Y115192D01*
X259016Y115569D01*
X258039Y115698D01*
X257063Y115569D01*
X256153Y115192D01*
X255372Y114593D01*
X254772Y113811D01*
X254758Y113776D01*
X254258Y113875D01*
Y143993D01*
X254758Y144145D01*
X255077Y143667D01*
X255091Y143658D01*
Y127075D01*
X255198Y126537D01*
X255503Y126081D01*
X265424Y116160D01*
X265233Y115698D01*
X264693D01*
X264392Y115573D01*
X264267Y115272D01*
Y108579D01*
X264392Y108277D01*
X264693Y108153D01*
X271386D01*
X271687Y108277D01*
X271812Y108579D01*
Y110520D01*
X282282D01*
Y108835D01*
X282407Y108533D01*
X282709Y108408D01*
X286646D01*
X286947Y108533D01*
X287072Y108835D01*
Y115921D01*
X286947Y116223D01*
X286646Y116347D01*
X282709D01*
X282407Y116223D01*
X282282Y115921D01*
Y113330D01*
X271812D01*
Y115272D01*
X271687Y115573D01*
X271386Y115698D01*
X269411D01*
X269337Y116069D01*
X269033Y116525D01*
X257901Y127657D01*
Y143658D01*
X257915Y143667D01*
X258255Y144175D01*
X261393D01*
Y143126D01*
X261518Y142825D01*
X261819Y142700D01*
X268905D01*
X269207Y142825D01*
X269332Y143126D01*
Y144386D01*
X275566D01*
Y143126D01*
X275691Y142825D01*
X275992Y142700D01*
X283079D01*
X283380Y142825D01*
X283505Y143126D01*
Y147653D01*
X283380Y147955D01*
X283079Y148080D01*
X280940D01*
Y167839D01*
X292755Y179654D01*
X300172D01*
Y177713D01*
X300297Y177411D01*
X300598Y177287D01*
X307291D01*
X307593Y177411D01*
X307717Y177713D01*
Y184406D01*
X307593Y184707D01*
X307291Y184832D01*
X300598D01*
X300297Y184707D01*
X300172Y184406D01*
Y182464D01*
X292173D01*
X291636Y182357D01*
X291180Y182053D01*
X278542Y169415D01*
X278237Y168959D01*
X278131Y168421D01*
Y148080D01*
X275992D01*
X275691Y147955D01*
X275566Y147653D01*
Y146393D01*
X269332D01*
Y147653D01*
X269207Y147955D01*
X268905Y148080D01*
X266767D01*
Y148819D01*
X266660Y149356D01*
X266356Y149812D01*
X263814Y152354D01*
X263787Y152492D01*
X263439Y153013D01*
X262918Y153361D01*
X262303Y153484D01*
X261689Y153361D01*
X261168Y153013D01*
X260820Y152492D01*
X260698Y151878D01*
X260820Y151263D01*
X261168Y150743D01*
X261689Y150394D01*
X261827Y150367D01*
X263615Y148580D01*
X263407Y148080D01*
X261819D01*
X261518Y147955D01*
X261393Y147653D01*
Y145998D01*
X258255D01*
X257915Y146506D01*
X257264Y146941D01*
X256496Y147094D01*
X255728Y146941D01*
X255077Y146506D01*
X254758Y146028D01*
X254258Y146180D01*
Y147957D01*
X262463Y156163D01*
X262661Y156458D01*
X262730Y156807D01*
Y167027D01*
X262661Y167376D01*
X262463Y167672D01*
X256423Y173712D01*
Y186737D01*
X258259Y188573D01*
X259765D01*
X260113Y188106D01*
Y186925D01*
X260238Y186624D01*
X260238Y186439D01*
X260113Y186138D01*
Y184957D01*
X260238Y184655D01*
X260238Y184471D01*
X260113Y184169D01*
Y182988D01*
X260238Y182687D01*
X260238Y182502D01*
X260113Y182201D01*
Y181020D01*
X260238Y180718D01*
X260238Y180534D01*
X260113Y180232D01*
Y179051D01*
X260238Y178750D01*
X260238Y178565D01*
X260113Y178264D01*
Y177083D01*
X260238Y176781D01*
X260238Y176597D01*
X260113Y176295D01*
Y175114D01*
X260238Y174813D01*
X260238Y174628D01*
X260113Y174327D01*
Y173146D01*
X260238Y172844D01*
X260238Y172660D01*
X260113Y172358D01*
Y171177D01*
X260238Y170876D01*
X260539Y170751D01*
X263496D01*
X263500Y170750D01*
X274606D01*
X274955Y170820D01*
X275251Y171017D01*
X289822Y185589D01*
X307717D01*
X308636Y184670D01*
Y173614D01*
X304088Y169066D01*
X303890Y168770D01*
X303821Y168421D01*
Y161404D01*
X303756Y161396D01*
X302846Y161019D01*
X302065Y160419D01*
X301465Y159638D01*
X301088Y158728D01*
X300960Y157752D01*
X301088Y156776D01*
X301465Y155866D01*
X302065Y155085D01*
X302846Y154485D01*
X303756Y154108D01*
X304732Y153980D01*
X305709Y154108D01*
X306618Y154485D01*
X307400Y155085D01*
X307999Y155866D01*
X308376Y156776D01*
X308505Y157752D01*
X308376Y158728D01*
X307999Y159638D01*
X307400Y160419D01*
X306618Y161019D01*
X305709Y161396D01*
X305644Y161404D01*
Y168044D01*
X310192Y172592D01*
X310389Y172888D01*
X310458Y173236D01*
Y185047D01*
X310389Y185396D01*
X310192Y185692D01*
X308739Y187144D01*
X308443Y187342D01*
X308095Y187411D01*
X307108D01*
X306948Y187885D01*
X307045Y187959D01*
X307741Y188867D01*
X308179Y189924D01*
X308263Y190559D01*
X303945D01*
X299627D01*
X299710Y189924D01*
X300148Y188867D01*
X300845Y187959D01*
X300942Y187885D01*
X300781Y187411D01*
X289445D01*
X289096Y187342D01*
X288801Y187144D01*
X274229Y172573D01*
X266931D01*
X266644Y173073D01*
X266674Y173146D01*
Y174327D01*
X266549Y174628D01*
X266549Y174813D01*
X266674Y175114D01*
Y176295D01*
X266549Y176597D01*
X266549Y176781D01*
X266674Y177083D01*
Y178264D01*
X266549Y178565D01*
X266549Y178750D01*
X266674Y179051D01*
Y180232D01*
X267022Y180699D01*
X273532D01*
X273880Y180768D01*
X274176Y180966D01*
X293358Y200148D01*
X300292D01*
X300301Y200083D01*
X300678Y199173D01*
X301277Y198392D01*
X302059Y197792D01*
X302969Y197415D01*
X303945Y197287D01*
X304921Y197415D01*
X305831Y197792D01*
X306612Y198392D01*
X307212Y199173D01*
X307589Y200083D01*
X307717Y201059D01*
X307589Y202035D01*
X307212Y202945D01*
X306612Y203727D01*
X305831Y204326D01*
X304921Y204703D01*
X303945Y204832D01*
X302969Y204703D01*
X302059Y204326D01*
X301277Y203727D01*
X300678Y202945D01*
X300301Y202035D01*
X300292Y201970D01*
X292980D01*
X292632Y201901D01*
X292446Y201777D01*
X292127Y202165D01*
X299843Y209881D01*
X300433Y209764D01*
X300678Y209173D01*
X301277Y208392D01*
X302059Y207792D01*
X302969Y207415D01*
X303945Y207287D01*
X304921Y207415D01*
X305831Y207792D01*
X306612Y208392D01*
X307212Y209173D01*
X307589Y210083D01*
X307717Y211059D01*
X307589Y212035D01*
X307212Y212945D01*
X306612Y213726D01*
X305831Y214326D01*
X304921Y214703D01*
X303945Y214831D01*
X302969Y214703D01*
X302059Y214326D01*
X301277Y213726D01*
X300678Y212945D01*
X300301Y212035D01*
X300292Y211970D01*
X299732D01*
X299384Y211901D01*
X299088Y211703D01*
X296972Y209588D01*
X296584Y209906D01*
X296708Y210092D01*
X296777Y210441D01*
Y217620D01*
X297002Y217770D01*
X297350Y218291D01*
X297472Y218905D01*
X297350Y219520D01*
X297002Y220041D01*
X296481Y220389D01*
X295866Y220511D01*
X295252Y220389D01*
X294731Y220041D01*
X294383Y219520D01*
X294261Y218905D01*
X294383Y218291D01*
X294731Y217770D01*
X294955Y217620D01*
Y210818D01*
X270595Y186458D01*
X267022D01*
X266674Y186925D01*
Y188106D01*
X266549Y188408D01*
X266549Y188592D01*
X266674Y188894D01*
Y190075D01*
X266549Y190376D01*
X266549Y190561D01*
X266674Y190862D01*
Y192043D01*
X266549Y192345D01*
X266549Y192529D01*
X266674Y192831D01*
Y194012D01*
X266549Y194313D01*
X266248Y194438D01*
X260539D01*
X260238Y194313D01*
X260113Y194012D01*
Y192831D01*
X260238Y192529D01*
X260238Y192345D01*
X260113Y192043D01*
Y190862D01*
X259765Y190395D01*
X257882D01*
X257533Y190326D01*
X257238Y190129D01*
X255061Y187952D01*
X254561Y188159D01*
Y189567D01*
X254491Y189916D01*
X254294Y190211D01*
X250940Y193566D01*
X250644Y193763D01*
X250295Y193833D01*
X237877D01*
X236706Y195004D01*
X236813Y195218D01*
X237001Y195416D01*
X237311Y195354D01*
X237402D01*
Y199228D01*
Y203102D01*
X237311D01*
X236921Y203025D01*
X236590Y202804D01*
X236393Y202509D01*
X235343D01*
X235041Y202384D01*
X234916Y202083D01*
Y197447D01*
X234454Y197256D01*
X231522Y200188D01*
Y205028D01*
X231452Y205376D01*
X231255Y205672D01*
X211049Y225877D01*
Y229618D01*
X211549Y229770D01*
X211590Y229708D01*
X211921Y229487D01*
X212311Y229410D01*
X214075D01*
Y233972D01*
Y238535D01*
X212311D01*
X211921Y238458D01*
X211590Y238237D01*
X211549Y238175D01*
X211049Y238327D01*
Y240362D01*
X210980Y240711D01*
X210782Y241006D01*
X206648Y245140D01*
X206353Y245338D01*
X206004Y245407D01*
X200771D01*
X197966Y248212D01*
Y254642D01*
X197897Y254990D01*
X197875Y255023D01*
Y255566D01*
X198335Y255984D01*
X199311D01*
Y257398D01*
X199811D01*
Y257898D01*
X202286D01*
X202229Y258182D01*
X202008Y258512D01*
X201678Y258733D01*
X201642Y258800D01*
X201714Y258972D01*
Y259760D01*
X201589Y260061D01*
X201544Y260080D01*
Y260621D01*
X201589Y260640D01*
X201714Y260941D01*
Y261728D01*
X201589Y262030D01*
X201544Y262048D01*
Y262590D01*
X201589Y262608D01*
X201714Y262909D01*
Y263697D01*
X201589Y263998D01*
X201544Y264017D01*
Y264558D01*
X201589Y264577D01*
X201714Y264878D01*
Y265665D01*
X201589Y265967D01*
X201544Y265985D01*
Y266527D01*
X201589Y266545D01*
X201714Y266846D01*
Y267634D01*
X201589Y267935D01*
X201287Y268060D01*
X198335D01*
X198182Y267997D01*
X198182Y267997D01*
X197812Y268367D01*
X197812Y268367D01*
X197875Y268520D01*
Y271472D01*
X197750Y271774D01*
X197449Y271899D01*
X196661D01*
X196590Y271869D01*
X196090Y272157D01*
Y278832D01*
X198619Y281361D01*
X201283D01*
X203699Y278945D01*
X203705Y278916D01*
X203944Y278558D01*
X209426Y273076D01*
Y260981D01*
X209146Y260563D01*
X209024Y259949D01*
X209146Y259334D01*
X209495Y258813D01*
X210016Y258465D01*
X210630Y258343D01*
X211244Y258465D01*
X211765Y258813D01*
X212113Y259334D01*
X212236Y259949D01*
X212113Y260563D01*
X211834Y260981D01*
Y273433D01*
X211742Y273894D01*
X211481Y274285D01*
X211091Y274546D01*
X211075Y274549D01*
X205505Y280119D01*
X205147Y280358D01*
X205118Y280364D01*
X202713Y282769D01*
Y285456D01*
X205434Y288176D01*
X205651Y288502D01*
X205728Y288886D01*
Y302075D01*
X205651Y302459D01*
X205434Y302784D01*
X197854Y310365D01*
Y312614D01*
X199248Y314007D01*
X199416Y314077D01*
X199485Y314245D01*
X201757Y316516D01*
X268513D01*
X275465Y309564D01*
Y305715D01*
X275191Y305602D01*
X275066Y305300D01*
Y299001D01*
X275191Y298700D01*
X275492Y298575D01*
X278248D01*
X278549Y298700D01*
X278674Y299001D01*
Y305300D01*
X278549Y305602D01*
X278275Y305715D01*
Y310146D01*
X278168Y310683D01*
X277864Y311139D01*
X270088Y318915D01*
X269632Y319219D01*
X269094Y319326D01*
X223804D01*
X220308Y322822D01*
Y358472D01*
X220308Y358472D01*
X220183Y358774D01*
X215754Y363203D01*
X215453Y363328D01*
D02*
G37*
G36*
X305512Y373405D02*
X305491Y373397D01*
X305470Y373403D01*
X303926Y373251D01*
X303888Y373231D01*
X303844Y373235D01*
X302360Y372785D01*
X302326Y372757D01*
X302283Y372753D01*
X300915Y372021D01*
X300887Y371988D01*
X300846Y371975D01*
X299647Y370991D01*
X299626Y370953D01*
X299588Y370932D01*
X298604Y369733D01*
X298591Y369691D01*
X298557Y369664D01*
X297826Y368296D01*
X297822Y368252D01*
X297794Y368218D01*
X297344Y366734D01*
X297348Y366691D01*
X297328Y366652D01*
X297176Y365109D01*
X297188Y365067D01*
X297176Y365025D01*
X297328Y363482D01*
X297348Y363443D01*
X297344Y363400D01*
X297794Y361915D01*
X297822Y361882D01*
X297826Y361838D01*
X298557Y360470D01*
X298591Y360443D01*
X298604Y360401D01*
X299588Y359202D01*
X299626Y359181D01*
X299647Y359143D01*
X300846Y358159D01*
X300887Y358146D01*
X300915Y358112D01*
X302283Y357381D01*
X302326Y357377D01*
X302360Y357349D01*
X303844Y356899D01*
X303888Y356903D01*
X303926Y356883D01*
X305470Y356731D01*
X305491Y356737D01*
X305512Y356729D01*
X305532Y356737D01*
X305554Y356731D01*
X307097Y356883D01*
X307136Y356903D01*
X307179Y356899D01*
X308663Y357349D01*
X308697Y357377D01*
X308740Y357381D01*
X310108Y358112D01*
X310136Y358146D01*
X310178Y358159D01*
X311377Y359143D01*
X311397Y359181D01*
X311436Y359202D01*
X312420Y360401D01*
X312433Y360443D01*
X312466Y360470D01*
X313197Y361838D01*
X313202Y361882D01*
X313229Y361915D01*
X313680Y363400D01*
X313675Y363443D01*
X313696Y363482D01*
X313848Y365025D01*
X313835Y365067D01*
X313848Y365109D01*
X313696Y366652D01*
X313675Y366691D01*
X313680Y366734D01*
X313229Y368218D01*
X313202Y368252D01*
X313197Y368296D01*
X312466Y369664D01*
X312433Y369691D01*
X312420Y369733D01*
X311436Y370932D01*
X311397Y370953D01*
X311377Y370991D01*
X310178Y371975D01*
X310136Y371988D01*
X310108Y372021D01*
X308740Y372753D01*
X308697Y372757D01*
X308663Y372785D01*
X307179Y373235D01*
X307136Y373231D01*
X307097Y373251D01*
X305554Y373403D01*
X305532Y373397D01*
X305512Y373405D01*
D02*
G37*
G36*
X270583Y365617D02*
Y361799D01*
X274401D01*
X274317Y362434D01*
X273879Y363491D01*
X273183Y364399D01*
X272275Y365096D01*
X271217Y365534D01*
X270583Y365617D01*
D02*
G37*
G36*
X269583Y360799D02*
X265765D01*
X265848Y360165D01*
X266286Y359107D01*
X266983Y358199D01*
X267891Y357503D01*
X268948Y357065D01*
X269583Y356981D01*
Y360799D01*
D02*
G37*
G36*
Y365617D02*
X268948Y365534D01*
X267891Y365096D01*
X266983Y364399D01*
X266286Y363491D01*
X265848Y362434D01*
X265765Y361799D01*
X269583D01*
Y365617D01*
D02*
G37*
G36*
X229669Y355913D02*
X226886D01*
Y351851D01*
X228650D01*
X229040Y351928D01*
X229371Y352149D01*
X229592Y352480D01*
X229669Y352870D01*
Y355913D01*
D02*
G37*
G36*
X225886Y342472D02*
X224122D01*
X223732Y342395D01*
X223401Y342174D01*
X223180Y341843D01*
X223102Y341453D01*
Y338409D01*
X225886D01*
Y342472D01*
D02*
G37*
G36*
X228650D02*
X226886D01*
Y338409D01*
X229669D01*
Y341453D01*
X229592Y341843D01*
X229371Y342174D01*
X229040Y342395D01*
X228650Y342472D01*
D02*
G37*
G36*
X131146Y350795D02*
X120980D01*
Y338071D01*
X130126D01*
X130516Y338149D01*
X130847Y338370D01*
X131068Y338700D01*
X131146Y339090D01*
Y350795D01*
D02*
G37*
G36*
X187311Y342079D02*
X185547D01*
Y338016D01*
X188331D01*
Y341059D01*
X188253Y341449D01*
X188032Y341780D01*
X187701Y342001D01*
X187311Y342079D01*
D02*
G37*
G36*
X119980Y350795D02*
X109815D01*
Y339090D01*
X109893Y338700D01*
X110114Y338370D01*
X110444Y338149D01*
X110835Y338071D01*
X119980D01*
Y350795D01*
D02*
G37*
G36*
X130126Y364520D02*
X120980D01*
Y351795D01*
X131146D01*
Y363500D01*
X131068Y363890D01*
X130847Y364221D01*
X130516Y364442D01*
X130126Y364520D01*
D02*
G37*
G36*
X225886Y355913D02*
X223102D01*
Y352870D01*
X223180Y352480D01*
X223401Y352149D01*
X223732Y351928D01*
X224122Y351851D01*
X225886D01*
Y355913D01*
D02*
G37*
G36*
X119980Y364520D02*
X110835D01*
X110444Y364442D01*
X110114Y364221D01*
X109893Y363890D01*
X109815Y363500D01*
Y351795D01*
X119980D01*
Y364520D01*
D02*
G37*
G36*
X184343Y355807D02*
X181559D01*
Y352764D01*
X181637Y352374D01*
X181858Y352043D01*
X182189Y351822D01*
X182579Y351744D01*
X184343D01*
Y355807D01*
D02*
G37*
G36*
X188126D02*
X185343D01*
Y351744D01*
X187106D01*
X187496Y351822D01*
X187827Y352043D01*
X188048Y352374D01*
X188126Y352764D01*
Y355807D01*
D02*
G37*
G36*
X249992Y303564D02*
X248130D01*
X247740Y303486D01*
X247409Y303265D01*
X247188Y302935D01*
X247110Y302544D01*
Y300288D01*
X249992D01*
Y303564D01*
D02*
G37*
G36*
X151870Y286622D02*
X147807D01*
Y284701D01*
X147885Y284311D01*
X148106Y283980D01*
X148437Y283759D01*
X148827Y283681D01*
X151870D01*
Y286622D01*
D02*
G37*
G36*
X249992Y261887D02*
X247110D01*
Y258056D01*
X247188Y257666D01*
X247409Y257335D01*
X247740Y257114D01*
X248130Y257036D01*
X249992D01*
Y261887D01*
D02*
G37*
G36*
X115642Y262894D02*
X111579D01*
Y261130D01*
X111656Y260740D01*
X111878Y260409D01*
X112208Y260188D01*
X112598Y260110D01*
X115642D01*
Y262894D01*
D02*
G37*
G36*
X253874Y261887D02*
X250992D01*
Y257036D01*
X252854D01*
X253244Y257114D01*
X253575Y257335D01*
X253796Y257666D01*
X253874Y258056D01*
Y261887D01*
D02*
G37*
G36*
X167528Y363926D02*
X148236D01*
X147935Y363801D01*
X147810Y363500D01*
Y339090D01*
X147935Y338789D01*
X148236Y338664D01*
X167528D01*
X167829Y338789D01*
X167954Y339090D01*
Y341520D01*
X168416Y341712D01*
X174382Y335745D01*
Y303641D01*
X163188Y292446D01*
X162883Y291990D01*
X162776Y291453D01*
Y289969D01*
X160638D01*
X160336Y289845D01*
X160271Y289687D01*
X159771Y289786D01*
Y291853D01*
X169593Y301675D01*
X169718Y301976D01*
Y330520D01*
X169718Y330520D01*
X169593Y330821D01*
X167919Y332494D01*
X167919Y332494D01*
X167618Y332619D01*
X161417Y332619D01*
X161417Y332619D01*
X161116Y332494D01*
Y332494D01*
X159148Y330526D01*
X159023Y330224D01*
Y295171D01*
X157373Y293521D01*
X157068Y293065D01*
X156961Y292528D01*
Y290607D01*
X156461Y290380D01*
X156304Y290485D01*
X155913Y290563D01*
X152870D01*
Y287122D01*
Y283681D01*
X155913D01*
X156304Y283759D01*
X156461Y283864D01*
X156961Y283637D01*
Y280511D01*
X154044Y277594D01*
X148046D01*
X148016Y277744D01*
X147581Y278396D01*
X146930Y278831D01*
X146161Y278983D01*
X146145Y278980D01*
X142645Y282480D01*
Y301386D01*
X142538Y301923D01*
X142234Y302379D01*
X138781Y305832D01*
X138325Y306137D01*
X137787Y306243D01*
X131832D01*
Y308382D01*
X131707Y308683D01*
X131405Y308808D01*
X126878D01*
X126708Y308738D01*
X126208Y308968D01*
Y312320D01*
X130450Y316562D01*
X130755Y317018D01*
X130862Y317555D01*
Y320161D01*
X131327D01*
X131628Y320285D01*
X131753Y320587D01*
Y330823D01*
X131628Y331124D01*
X131327Y331249D01*
X127587D01*
X127285Y331124D01*
X127161Y330823D01*
Y325822D01*
X126283D01*
X125888Y326086D01*
X125197Y326224D01*
X124506Y326086D01*
X123920Y325695D01*
X123528Y325109D01*
X123390Y324417D01*
X123528Y323726D01*
X123920Y323140D01*
X124506Y322748D01*
X125197Y322611D01*
X125888Y322748D01*
X126283Y323012D01*
X127161D01*
Y320587D01*
X127285Y320285D01*
X127587Y320161D01*
X128052D01*
Y318137D01*
X123810Y313895D01*
X123505Y313439D01*
X123398Y312902D01*
Y311751D01*
X122898Y311599D01*
X122745Y311828D01*
X117234Y317340D01*
X116778Y317645D01*
X116240Y317751D01*
X113944D01*
X112909Y318787D01*
Y320161D01*
X113374D01*
X113675Y320285D01*
X113800Y320587D01*
Y330823D01*
X113675Y331124D01*
X113374Y331249D01*
X109634D01*
X109333Y331124D01*
X109208Y330823D01*
Y320587D01*
X109333Y320285D01*
X109634Y320161D01*
X110099D01*
Y318205D01*
X110206Y317667D01*
X110511Y317211D01*
X112369Y315353D01*
X112825Y315049D01*
X113362Y314942D01*
X115658D01*
X120347Y310253D01*
Y309683D01*
X120238Y309575D01*
X119847Y309351D01*
X119595Y309401D01*
X117831D01*
Y304839D01*
Y300276D01*
X119595D01*
X119847Y300326D01*
X120238Y300102D01*
X120347Y299994D01*
Y291967D01*
X120238Y291858D01*
X119847Y291635D01*
X119595Y291685D01*
X117831D01*
Y287122D01*
Y282559D01*
X119595D01*
X119985Y282637D01*
X120588Y282439D01*
X120758Y282184D01*
X125680Y277262D01*
X126136Y276958D01*
X126673Y276851D01*
X132185D01*
X132723Y276958D01*
X133178Y277262D01*
X137214Y281298D01*
X137519Y281754D01*
X137625Y282291D01*
Y291445D01*
X137519Y291983D01*
X137214Y292438D01*
X130547Y299106D01*
Y300869D01*
X131405D01*
X131707Y300994D01*
X131832Y301295D01*
Y303434D01*
X137205D01*
X139835Y300804D01*
Y281898D01*
X139942Y281360D01*
X140247Y280904D01*
X144158Y276993D01*
X144154Y276976D01*
X144307Y276208D01*
X144742Y275557D01*
X145393Y275122D01*
X146161Y274969D01*
X146264Y274990D01*
X146411Y274891D01*
X146949Y274784D01*
X154626D01*
X155164Y274891D01*
X155619Y275196D01*
X159360Y278936D01*
X159664Y279392D01*
X159771Y279929D01*
Y284458D01*
X160271Y284557D01*
X160336Y284399D01*
X160638Y284275D01*
X162776D01*
Y280084D01*
X162754Y280069D01*
X162319Y279418D01*
X162166Y278650D01*
X162319Y277882D01*
X162754Y277230D01*
X163405Y276795D01*
X164173Y276642D01*
X164941Y276795D01*
X165592Y277230D01*
X166027Y277882D01*
X166180Y278650D01*
X166027Y279418D01*
X165592Y280069D01*
X165586Y280073D01*
Y284275D01*
X167724D01*
X168026Y284399D01*
X168150Y284701D01*
Y289543D01*
X168026Y289845D01*
X167724Y289969D01*
X165586D01*
Y290871D01*
X176781Y302066D01*
X177085Y302521D01*
X177192Y303059D01*
Y336327D01*
X177085Y336864D01*
X176781Y337320D01*
X167954Y346147D01*
Y363500D01*
X167829Y363801D01*
X167528Y363926D01*
D02*
G37*
G36*
X314897Y261887D02*
X312016D01*
Y257036D01*
X313878D01*
X314268Y257114D01*
X314599Y257335D01*
X314820Y257666D01*
X314897Y258056D01*
Y261887D01*
D02*
G37*
G36*
X151870Y290563D02*
X148827D01*
X148437Y290485D01*
X148106Y290264D01*
X147885Y289933D01*
X147807Y289543D01*
Y287622D01*
X151870D01*
Y290563D01*
D02*
G37*
G36*
X116831Y291685D02*
X115067D01*
X114677Y291607D01*
X114346Y291386D01*
X114125Y291055D01*
X114047Y290665D01*
Y287622D01*
X116831D01*
Y291685D01*
D02*
G37*
G36*
X252854Y267737D02*
X250992D01*
Y262887D01*
X253874D01*
Y266718D01*
X253796Y267108D01*
X253575Y267439D01*
X253244Y267659D01*
X252854Y267737D01*
D02*
G37*
G36*
X115361Y266677D02*
X112598D01*
X112208Y266599D01*
X111878Y266378D01*
X111656Y266048D01*
X111579Y265657D01*
Y263894D01*
X115642D01*
Y265461D01*
X115363D01*
X115361Y266677D01*
D02*
G37*
G36*
X313878Y267737D02*
X312016D01*
Y262887D01*
X314897D01*
Y266718D01*
X314820Y267108D01*
X314599Y267439D01*
X314268Y267659D01*
X313878Y267737D01*
D02*
G37*
G36*
X249992Y267737D02*
X248130D01*
X247740Y267659D01*
X247409Y267439D01*
X247188Y267108D01*
X247110Y266718D01*
Y262887D01*
X249992D01*
Y267737D01*
D02*
G37*
G36*
X116831Y286622D02*
X114047D01*
Y283579D01*
X114125Y283189D01*
X114346Y282858D01*
X114677Y282637D01*
X115067Y282559D01*
X116831D01*
Y286622D01*
D02*
G37*
G36*
X120705Y262894D02*
X116642D01*
Y260110D01*
X119685D01*
X120075Y260188D01*
X120406Y260409D01*
X120627Y260740D01*
X120705Y261130D01*
Y262894D01*
D02*
G37*
G36*
X119685Y266677D02*
X119327D01*
X118110Y265461D01*
X116642D01*
Y263894D01*
X120705D01*
Y265657D01*
X120627Y266048D01*
X120406Y266378D01*
X120075Y266599D01*
X119685Y266677D01*
D02*
G37*
G36*
X311016Y267737D02*
X309154D01*
X308763Y267659D01*
X308433Y267439D01*
X308212Y267108D01*
X308134Y266718D01*
Y262887D01*
X311016D01*
Y267737D01*
D02*
G37*
G36*
X184547Y296465D02*
X181764D01*
Y293421D01*
X181842Y293031D01*
X182062Y292700D01*
X182393Y292479D01*
X182783Y292402D01*
X184547D01*
Y296465D01*
D02*
G37*
G36*
X116831Y304339D02*
X114047D01*
Y301295D01*
X114125Y300905D01*
X114346Y300574D01*
X114677Y300353D01*
X115067Y300276D01*
X116831D01*
Y304339D01*
D02*
G37*
G36*
X183957Y256898D02*
X181982D01*
X182038Y256614D01*
X182259Y256283D01*
X182590Y256062D01*
X182980Y255984D01*
X183957D01*
Y256898D01*
D02*
G37*
G36*
X260925Y305726D02*
X258169D01*
X257868Y305602D01*
X257743Y305300D01*
Y299001D01*
X257868Y298700D01*
X258169Y298575D01*
X260925D01*
X261227Y298700D01*
X261351Y299001D01*
Y305300D01*
X261227Y305602D01*
X260925Y305726D01*
D02*
G37*
G36*
X291240D02*
X288484D01*
X288183Y305602D01*
X288058Y305300D01*
Y299001D01*
X288183Y298700D01*
X288484Y298575D01*
X291240D01*
X291542Y298700D01*
X291666Y299001D01*
Y305300D01*
X291542Y305602D01*
X291240Y305726D01*
D02*
G37*
G36*
X171744Y245516D02*
X169980D01*
X169590Y245438D01*
X169259Y245217D01*
X169038Y244886D01*
X168961Y244496D01*
Y241453D01*
X171744D01*
Y245516D01*
D02*
G37*
G36*
X175528Y240453D02*
X172244D01*
X168961D01*
Y237409D01*
X169038Y237019D01*
X169259Y236688D01*
X169590Y236468D01*
X169526Y236039D01*
X173815D01*
X174102Y236390D01*
X174508D01*
X174898Y236468D01*
X175229Y236688D01*
X175450Y237019D01*
X175528Y237409D01*
Y240453D01*
D02*
G37*
G36*
X119685Y254273D02*
X112598D01*
X112297Y254148D01*
X112172Y253847D01*
Y249319D01*
X112297Y249018D01*
X112598Y248893D01*
X119685D01*
X119986Y249018D01*
X120111Y249319D01*
Y250284D01*
X130290D01*
Y249721D01*
X130415Y249419D01*
X130717Y249294D01*
X137803D01*
X138104Y249419D01*
X138229Y249721D01*
Y250284D01*
X150763D01*
Y249721D01*
X150888Y249419D01*
X151189Y249294D01*
X153327D01*
Y247308D01*
X153305Y247293D01*
X152870Y246642D01*
X152717Y245874D01*
X152870Y245106D01*
X153305Y244455D01*
X153956Y244020D01*
X154724Y243867D01*
X155492Y244020D01*
X156144Y244455D01*
X156579Y245106D01*
X156731Y245874D01*
X156579Y246642D01*
X156144Y247293D01*
X156137Y247298D01*
Y249294D01*
X158276D01*
X158577Y249419D01*
X158702Y249721D01*
Y253658D01*
X158577Y253959D01*
X158276Y254084D01*
X151189D01*
X150888Y253959D01*
X150763Y253658D01*
Y253094D01*
X138229D01*
Y253658D01*
X138104Y253959D01*
X137803Y254084D01*
X130717D01*
X130415Y253959D01*
X130290Y253658D01*
Y253094D01*
X120111D01*
Y253847D01*
X119986Y254148D01*
X119685Y254273D01*
D02*
G37*
G36*
X174508Y245516D02*
X172744D01*
Y241453D01*
X175528D01*
Y244496D01*
X175450Y244886D01*
X175229Y245217D01*
X174898Y245438D01*
X174508Y245516D01*
D02*
G37*
G36*
X307472Y299682D02*
X303803D01*
Y297426D01*
X303881Y297036D01*
X304102Y296705D01*
X304433Y296484D01*
X304823Y296407D01*
X307472D01*
Y299682D01*
D02*
G37*
G36*
X312142D02*
X308472D01*
Y296407D01*
X311122D01*
X311512Y296484D01*
X311843Y296705D01*
X312064Y297036D01*
X312142Y297426D01*
Y299682D01*
D02*
G37*
G36*
X188331Y296465D02*
X185547D01*
Y292402D01*
X187311D01*
X187701Y292479D01*
X188032Y292700D01*
X188253Y293031D01*
X188331Y293421D01*
Y296465D01*
D02*
G37*
G36*
X249992Y299288D02*
X247110D01*
Y297032D01*
X247188Y296642D01*
X247409Y296311D01*
X247740Y296091D01*
X248130Y296013D01*
X249992D01*
Y299288D01*
D02*
G37*
G36*
X187311Y301527D02*
X185547D01*
Y297465D01*
X188331D01*
Y300508D01*
X188253Y300898D01*
X188032Y301229D01*
X187701Y301450D01*
X187311Y301527D01*
D02*
G37*
G36*
X202286Y256898D02*
X200311D01*
Y255984D01*
X201287D01*
X201678Y256062D01*
X202008Y256283D01*
X202229Y256614D01*
X202286Y256898D01*
D02*
G37*
G36*
X311016Y261887D02*
X308134D01*
Y258056D01*
X308212Y257666D01*
X308433Y257335D01*
X308763Y257114D01*
X309154Y257036D01*
X311016D01*
Y261887D01*
D02*
G37*
G36*
X184547Y301527D02*
X182783D01*
X182393Y301450D01*
X182062Y301229D01*
X181842Y300898D01*
X181764Y300508D01*
Y297465D01*
X184547D01*
Y301527D01*
D02*
G37*
%LPD*%
G36*
X210736Y178567D02*
Y178453D01*
X207874Y181610D01*
X213779D01*
X210736Y178567D01*
D02*
G37*
G36*
X242896Y156028D02*
Y152772D01*
X242965Y152423D01*
X243163Y152127D01*
X245139Y150151D01*
X244955Y149628D01*
X244326Y149503D01*
X243605Y149021D01*
X243123Y148300D01*
X243053Y147949D01*
X245177D01*
Y147449D01*
X245677D01*
Y145324D01*
X246028Y145394D01*
X246750Y145876D01*
X247232Y146598D01*
X247357Y147226D01*
X247880Y147411D01*
X248597Y146693D01*
Y136212D01*
X247949Y135565D01*
X247243D01*
X247052Y136027D01*
X247109Y136084D01*
X247306Y136380D01*
X247376Y136728D01*
Y136788D01*
X247455Y136821D01*
X247580Y137122D01*
Y139091D01*
X247455Y139392D01*
X247376Y139425D01*
Y140559D01*
X247592Y140703D01*
X247940Y141224D01*
X248062Y141839D01*
X247940Y142453D01*
X247592Y142974D01*
X247071Y143322D01*
X246457Y143444D01*
X245842Y143322D01*
X245321Y142974D01*
X244973Y142453D01*
X244851Y141839D01*
X244973Y141224D01*
X245321Y140703D01*
X245332Y140696D01*
X245322Y140408D01*
X245231Y140307D01*
X244843Y140061D01*
X244595Y140110D01*
X244406D01*
Y138106D01*
X243406D01*
Y140110D01*
X243216D01*
X242826Y140032D01*
X242758Y139987D01*
X242258Y140254D01*
Y141510D01*
X242375Y141589D01*
X242724Y142110D01*
X242846Y142724D01*
X242724Y143339D01*
X242375Y143860D01*
X241855Y144208D01*
X241240Y144330D01*
X240626Y144208D01*
X240199Y143922D01*
X239859Y144032D01*
X239699Y144144D01*
Y153477D01*
X242385Y156163D01*
X242396Y156180D01*
X242896Y156028D01*
D02*
G37*
G36*
X219882Y358472D02*
Y322646D01*
X224902Y317626D01*
X202264D01*
X196850Y312213D01*
Y311622D01*
X196752Y311720D01*
X196653D01*
X196555Y311622D01*
Y309457D01*
X194291Y311720D01*
X193012Y313000D01*
Y360343D01*
X194291Y361622D01*
X195472Y362902D01*
X215453D01*
X219882Y358472D01*
D02*
G37*
G36*
X221993Y199167D02*
X222289Y198969D01*
X222638Y198900D01*
X230233D01*
X236856Y192277D01*
X237151Y192079D01*
X237500Y192010D01*
X249918D01*
X252738Y189190D01*
Y169589D01*
X252272Y169241D01*
X251091D01*
X250789Y169116D01*
X250605Y169116D01*
X250303Y169241D01*
X249122D01*
X248728Y169140D01*
X248335Y169241D01*
X247153D01*
X246760Y169140D01*
X246366Y169241D01*
X245185D01*
X244718Y169589D01*
Y173162D01*
X244936Y173379D01*
X245133Y173675D01*
X245203Y174024D01*
Y177463D01*
X245427Y177613D01*
X245775Y178134D01*
X245897Y178748D01*
X245775Y179362D01*
X245427Y179883D01*
X244906Y180231D01*
X244291Y180354D01*
X243677Y180231D01*
X243250Y179946D01*
X242910Y180055D01*
X242750Y180168D01*
Y187562D01*
X242937Y187599D01*
X243458Y187947D01*
X243806Y188468D01*
X243929Y189083D01*
X243806Y189697D01*
X243458Y190218D01*
X242937Y190566D01*
X242323Y190688D01*
X241708Y190566D01*
X241188Y190218D01*
X240839Y189697D01*
X240717Y189083D01*
X240839Y188468D01*
X240927Y188337D01*
Y180058D01*
X240766Y179948D01*
X240427Y179865D01*
X238706Y181586D01*
Y182286D01*
X238931Y182436D01*
X239279Y182956D01*
X239401Y183571D01*
X239279Y184185D01*
X238931Y184706D01*
X238410Y185054D01*
X237795Y185177D01*
X237181Y185054D01*
X236660Y184706D01*
X236312Y184185D01*
X236190Y183571D01*
X236312Y182956D01*
X236660Y182436D01*
X236884Y182286D01*
Y181209D01*
X236953Y180860D01*
X237151Y180564D01*
X238959Y178756D01*
Y178276D01*
X238874Y178213D01*
X238194Y178330D01*
X238143Y178407D01*
X237622Y178755D01*
X237008Y178877D01*
X236393Y178755D01*
X235873Y178407D01*
X235524Y177886D01*
X235474Y177633D01*
X233868Y176027D01*
X233406Y176218D01*
Y176295D01*
X233282Y176597D01*
X233282Y176781D01*
X233406Y177083D01*
Y178264D01*
X233282Y178565D01*
X233282Y178750D01*
X233406Y179051D01*
Y180232D01*
X233282Y180534D01*
X233282Y180718D01*
X233406Y181020D01*
Y182201D01*
X233282Y182502D01*
X233282Y182687D01*
X233406Y182988D01*
Y184169D01*
X233282Y184471D01*
X233282Y184655D01*
X233406Y184957D01*
Y186138D01*
X233282Y186439D01*
X233282Y186624D01*
X233406Y186925D01*
Y188106D01*
X233282Y188408D01*
X233282Y188592D01*
X233406Y188894D01*
Y190075D01*
X233282Y190376D01*
X233282Y190561D01*
X233406Y190862D01*
Y192043D01*
X233282Y192345D01*
X233282Y192529D01*
X233406Y192831D01*
Y194012D01*
X233282Y194313D01*
X232980Y194438D01*
X227272D01*
X227017Y194333D01*
X223598D01*
X204841Y213090D01*
X204960Y213689D01*
X204807Y214457D01*
X204372Y215108D01*
X203721Y215543D01*
X202953Y215696D01*
X202185Y215543D01*
X201534Y215108D01*
X201098Y214457D01*
X200946Y213689D01*
X201098Y212921D01*
X201534Y212270D01*
X202185Y211835D01*
X202953Y211682D01*
X203552Y211801D01*
X222576Y192777D01*
X222872Y192579D01*
X223220Y192510D01*
X226498D01*
X226846Y192043D01*
Y190862D01*
X226970Y190561D01*
X226970Y190376D01*
X226846Y190075D01*
Y188894D01*
X226970Y188592D01*
X226970Y188408D01*
X226846Y188106D01*
Y186925D01*
X226498Y186458D01*
X224401D01*
X198163Y212696D01*
Y220587D01*
X198094Y220935D01*
X197896Y221231D01*
X193605Y225522D01*
X193309Y225720D01*
X192961Y225789D01*
X188351D01*
Y227043D01*
X188226Y227345D01*
X187925Y227469D01*
X185752D01*
X184511Y228711D01*
X184505Y228715D01*
X184657Y229215D01*
X191945D01*
X221993Y199167D01*
D02*
G37*
G36*
X217535Y180599D02*
X217438Y179932D01*
X217376Y179891D01*
X217028Y179370D01*
X216906Y178756D01*
X217028Y178141D01*
X217376Y177620D01*
X217601Y177471D01*
Y176197D01*
X217670Y175848D01*
X217867Y175552D01*
X222297Y171123D01*
X222592Y170926D01*
X222941Y170856D01*
X227017D01*
X227272Y170751D01*
X232980D01*
X233282Y170876D01*
X233406Y171177D01*
Y172358D01*
X233282Y172660D01*
X233282Y172844D01*
X233406Y173146D01*
Y173320D01*
X233699Y173379D01*
X233995Y173576D01*
X236282Y175863D01*
X236393Y175788D01*
X237008Y175666D01*
X237622Y175788D01*
X238143Y176136D01*
X238194Y176213D01*
X238874Y176330D01*
X238959Y176268D01*
Y169589D01*
X238492Y169241D01*
X237311D01*
X236917Y169140D01*
X236524Y169241D01*
X235343D01*
X235041Y169116D01*
X234916Y168815D01*
Y163106D01*
X235022Y162852D01*
Y161614D01*
X230147Y156739D01*
X229949Y156443D01*
X229880Y156095D01*
Y115808D01*
X229892Y115747D01*
X229454Y115387D01*
X229016Y115569D01*
X228951Y115578D01*
Y153185D01*
X228881Y153534D01*
X228684Y153829D01*
X211647Y170866D01*
Y178876D01*
X213471Y180699D01*
X217452D01*
X217535Y180599D01*
D02*
G37*
G36*
X226846Y180232D02*
Y179051D01*
X226970Y178750D01*
X226970Y178565D01*
X226846Y178264D01*
Y177083D01*
X226970Y176781D01*
X226970Y176597D01*
X226846Y176295D01*
Y175114D01*
X226970Y174813D01*
X226970Y174628D01*
X226846Y174327D01*
Y173146D01*
X226498Y172679D01*
X223318D01*
X219423Y176574D01*
Y177471D01*
X219647Y177620D01*
X219995Y178141D01*
X220117Y178756D01*
X219995Y179370D01*
X219647Y179891D01*
X219586Y179932D01*
X219489Y180599D01*
X219572Y180699D01*
X226498D01*
X226846Y180232D01*
D02*
G37*
G36*
X199749Y243852D02*
X200045Y243654D01*
X200394Y243585D01*
X205627D01*
X209227Y239985D01*
Y225500D01*
X209296Y225151D01*
X209493Y224856D01*
X229699Y204650D01*
Y202111D01*
X228310Y200722D01*
X223015D01*
X192967Y230770D01*
X192672Y230968D01*
X192323Y231037D01*
X190302D01*
X190150Y231537D01*
X190300Y231638D01*
X199590Y240927D01*
X204347D01*
X206274Y239001D01*
Y223335D01*
X206343Y222986D01*
X206541Y222690D01*
X223093Y206138D01*
X222926Y205888D01*
X222804Y205274D01*
X222926Y204659D01*
X223274Y204138D01*
X223795Y203790D01*
X224410Y203668D01*
X225024Y203790D01*
X225545Y204138D01*
X225893Y204659D01*
X226015Y205274D01*
X225893Y205888D01*
X225545Y206409D01*
X225024Y206757D01*
X225000Y206762D01*
X224906Y206902D01*
X208096Y223712D01*
Y239378D01*
X208027Y239727D01*
X207829Y240022D01*
X205369Y242483D01*
X205073Y242680D01*
X204724Y242750D01*
X199590D01*
X195998Y246342D01*
Y246911D01*
X196159Y247020D01*
X196498Y247103D01*
X199749Y243852D01*
D02*
G37*
G36*
X238797Y159634D02*
X238959Y159525D01*
Y158858D01*
X235781Y155680D01*
X235583Y155384D01*
X235514Y155035D01*
Y134760D01*
X235583Y134411D01*
X235781Y134116D01*
X237672Y132224D01*
Y131413D01*
X237797Y131112D01*
X238098Y130987D01*
X239476D01*
X239778Y131112D01*
X239796Y131157D01*
X240337D01*
X240356Y131112D01*
X240657Y130987D01*
X242035D01*
X242337Y131112D01*
X242783Y130905D01*
X242994Y130698D01*
Y128247D01*
X241756Y127010D01*
X236212D01*
X233203Y130019D01*
Y154461D01*
X238459Y159718D01*
X238797Y159634D01*
D02*
G37*
G36*
X202287Y281799D02*
X202276Y281787D01*
X197626D01*
X202287Y286449D01*
X202287D01*
Y281799D01*
D02*
G37*
G36*
X230610Y199811D02*
X228642D01*
X228346Y200106D01*
Y200155D01*
X230610Y202419D01*
Y199811D01*
D02*
G37*
%LPC*%
G36*
X244677Y146949D02*
X243053D01*
X243123Y146598D01*
X243605Y145876D01*
X244326Y145394D01*
X244677Y145324D01*
Y146949D01*
D02*
G37*
G36*
X205028Y237942D02*
X200500D01*
X200199Y237817D01*
X200074Y237516D01*
Y230429D01*
X200199Y230128D01*
X200500Y230003D01*
X201548D01*
Y225846D01*
X201534Y225836D01*
X201098Y225185D01*
X200946Y224417D01*
X201098Y223649D01*
X201534Y222998D01*
X202185Y222563D01*
X202953Y222410D01*
X203721Y222563D01*
X204372Y222998D01*
X204807Y223649D01*
X204960Y224417D01*
X204807Y225185D01*
X204372Y225836D01*
X204358Y225846D01*
Y230003D01*
X205028D01*
X205329Y230128D01*
X205454Y230429D01*
Y237516D01*
X205329Y237817D01*
X205028Y237942D01*
D02*
G37*
%LPD*%
G36*
X126878Y300869D02*
X127737D01*
Y298524D01*
X127844Y297986D01*
X128148Y297530D01*
X134816Y290863D01*
Y282873D01*
X131603Y279661D01*
X127255D01*
X123157Y283759D01*
Y295548D01*
X123657Y295700D01*
X123810Y295471D01*
X127689Y291592D01*
X127622Y291091D01*
X126878D01*
X126577Y290967D01*
X126452Y290665D01*
Y283579D01*
X126577Y283277D01*
X126878Y283153D01*
X131405D01*
X131707Y283277D01*
X131832Y283579D01*
Y290665D01*
X131707Y290967D01*
X131405Y291091D01*
X130547D01*
Y292126D01*
X130440Y292664D01*
X130135Y293119D01*
X126208Y297046D01*
Y300709D01*
X126708Y300939D01*
X126878Y300869D01*
D02*
G37*
G36*
X167618Y332193D02*
X169291Y330520D01*
Y301976D01*
X159449Y292134D01*
X159350D01*
X159449Y293709D01*
Y330224D01*
X161417Y332193D01*
X167618Y332193D01*
D02*
G37*
D10*
X188591Y182004D02*
D03*
X164181D02*
D03*
X188984Y196571D02*
D03*
X164181D02*
D03*
X134260Y263500D02*
D03*
Y251689D02*
D03*
X154732Y263500D02*
D03*
Y251689D02*
D03*
D11*
X164181Y304445D02*
D03*
X152370D02*
D03*
X164181Y287122D02*
D03*
X152370D02*
D03*
D12*
X117331Y304839D02*
D03*
X129142D02*
D03*
X117331Y287122D02*
D03*
X129142D02*
D03*
X185047Y296965D02*
D03*
X196858D02*
D03*
X214575Y233972D02*
D03*
X202764D02*
D03*
X172244Y240953D02*
D03*
X184055D02*
D03*
X185039Y317921D02*
D03*
X196850D02*
D03*
X185047Y337516D02*
D03*
X196858D02*
D03*
X226386Y337909D02*
D03*
X214575D02*
D03*
X226386Y356413D02*
D03*
X214575D02*
D03*
X184843Y356307D02*
D03*
X196653D02*
D03*
D13*
X279535Y133579D02*
D03*
Y145390D02*
D03*
X265362Y133579D02*
D03*
Y145390D02*
D03*
X155126Y228067D02*
D03*
Y216256D02*
D03*
X134653Y228067D02*
D03*
Y216256D02*
D03*
X116142Y263394D02*
D03*
Y251583D02*
D03*
X135835Y193815D02*
D03*
Y182004D02*
D03*
D14*
X136622Y157201D02*
D03*
X122449D02*
D03*
X168512D02*
D03*
X154339D02*
D03*
D15*
X243701Y233965D02*
D03*
X231890D02*
D03*
X188583Y157587D02*
D03*
X200394D02*
D03*
X296488Y112378D02*
D03*
X284677D02*
D03*
D16*
X307972Y300182D02*
D03*
D17*
X311516Y262387D02*
D03*
X250492Y262387D02*
D03*
D18*
Y299788D02*
D03*
D19*
X255217Y302151D02*
D03*
X259547D02*
D03*
X263878D02*
D03*
X268209D02*
D03*
X272539D02*
D03*
X276870D02*
D03*
X281201D02*
D03*
X285531D02*
D03*
X289862D02*
D03*
D20*
X148906Y325705D02*
D03*
X166858D02*
D03*
X111504D02*
D03*
X129457D02*
D03*
D21*
X157882Y351295D02*
D03*
X120480D02*
D03*
D22*
X235933Y199228D02*
D03*
X237902D02*
D03*
X239870D02*
D03*
X241839D02*
D03*
X243807D02*
D03*
X245776D02*
D03*
X247744D02*
D03*
X249713D02*
D03*
X251681D02*
D03*
X253650D02*
D03*
X255618D02*
D03*
X257587D02*
D03*
Y165961D02*
D03*
X255618D02*
D03*
X253650D02*
D03*
X251681D02*
D03*
X249713D02*
D03*
X247744D02*
D03*
X245776D02*
D03*
X243807D02*
D03*
X241839D02*
D03*
X239870D02*
D03*
X237902D02*
D03*
X235933D02*
D03*
D23*
X263394Y193421D02*
D03*
Y191453D02*
D03*
Y189484D02*
D03*
Y187516D02*
D03*
Y185547D02*
D03*
Y183579D02*
D03*
Y181610D02*
D03*
Y179642D02*
D03*
Y177673D02*
D03*
Y175705D02*
D03*
Y173736D02*
D03*
Y171768D02*
D03*
X230126D02*
D03*
Y173736D02*
D03*
Y175705D02*
D03*
Y177673D02*
D03*
Y179642D02*
D03*
Y181610D02*
D03*
Y183579D02*
D03*
Y185547D02*
D03*
Y187516D02*
D03*
Y189484D02*
D03*
Y191453D02*
D03*
Y193421D02*
D03*
D24*
X238787Y138106D02*
D03*
X241347D02*
D03*
X243905D02*
D03*
X246465D02*
D03*
X238787Y132398D02*
D03*
X241347D02*
D03*
X243905D02*
D03*
X246465D02*
D03*
D25*
X199811Y257398D02*
D03*
Y259366D02*
D03*
Y261335D02*
D03*
Y263303D02*
D03*
Y265272D02*
D03*
Y267240D02*
D03*
X184457D02*
D03*
Y265272D02*
D03*
Y263303D02*
D03*
Y261335D02*
D03*
Y259366D02*
D03*
Y257398D02*
D03*
D26*
X197055Y269996D02*
D03*
X195087D02*
D03*
X193118D02*
D03*
X191150D02*
D03*
X189181D02*
D03*
X187213D02*
D03*
Y254642D02*
D03*
X189181D02*
D03*
X191150D02*
D03*
X193118D02*
D03*
X195087D02*
D03*
X197055D02*
D03*
D27*
X192134Y262319D02*
D03*
D28*
X185366Y224878D02*
D03*
X185386Y217433D02*
D03*
X176374Y217370D02*
D03*
Y224878D02*
D03*
D29*
X250193Y361717D02*
X270083D01*
X115362Y262713D02*
Y265764D01*
X141240Y281898D02*
X146949Y276189D01*
X200394Y157595D02*
X217610D01*
X250492Y262387D02*
Y299788D01*
X311516Y262387D02*
Y296639D01*
X115756Y351295D02*
X120480D01*
X104724Y340264D02*
X115756Y351295D01*
X104724Y316051D02*
Y340264D01*
X171063Y271071D02*
X185047Y285055D01*
Y296965D01*
X168405Y169693D02*
X168512Y169587D01*
Y157201D02*
Y169587D01*
X136622Y150394D02*
Y157201D01*
Y150394D02*
X140354Y146661D01*
X148425D01*
X125197Y324417D02*
X128571D01*
X128866Y324122D01*
X129457Y317555D02*
Y324713D01*
X128866Y324122D02*
X129457Y324713D01*
X202764Y233972D02*
X202953Y233784D01*
Y224417D02*
Y233784D01*
X217610Y157595D02*
X224213Y150992D01*
X161409Y216256D02*
X161417Y216248D01*
X155126Y216256D02*
X161409D01*
X171685Y224878D02*
X176374D01*
X154724Y245874D02*
X154732Y245882D01*
Y251689D01*
X171653Y240362D02*
X172244Y240953D01*
X171653Y235539D02*
Y240362D01*
X262303Y151878D02*
X265362Y148819D01*
Y145390D02*
Y148819D01*
X195677Y126886D02*
X195965Y127173D01*
X219980D01*
X265256Y127469D02*
X265362Y127575D01*
Y133579D01*
X195677Y120390D02*
Y126886D01*
X292173Y181059D02*
X303945D01*
X279535Y168421D02*
X292173Y181059D01*
X279535Y145390D02*
Y168421D01*
X256496Y127075D02*
Y145087D01*
Y127075D02*
X268039Y115532D01*
Y111925D02*
Y115532D01*
X231890Y233965D02*
Y255224D01*
X308768Y147752D02*
X309244D01*
X303945Y191059D02*
X310032D01*
X304732Y147752D02*
X308768D01*
X298236D02*
X304732D01*
X293406Y142921D02*
X298236Y147752D01*
X293406Y138492D02*
Y142921D01*
X288492Y133579D02*
X293406Y138492D01*
X279535Y133579D02*
X288492D01*
X265362D02*
X279535D01*
X307972Y300182D02*
X311516Y296639D01*
X249334Y261228D02*
X250492Y262387D01*
X237894Y261228D02*
X249334D01*
X231890Y255224D02*
X237894Y261228D01*
X231882Y233972D02*
X231890Y233965D01*
X214575Y233972D02*
X231882D01*
X164181Y196571D02*
X188984D01*
X155126Y201969D02*
Y216256D01*
Y201969D02*
X160524Y196571D01*
X164181D01*
X129815Y193815D02*
X135835D01*
X118555Y205075D02*
X129815Y193815D01*
X113000Y205075D02*
X118555D01*
X134653Y194996D02*
X135835Y193815D01*
X134653Y194996D02*
Y216256D01*
X155126D01*
X115362Y265764D02*
X120669Y271071D01*
X171063D01*
X115362Y265764D02*
Y275409D01*
X276870Y302151D02*
Y310146D01*
X244890Y356413D02*
X250193Y361717D01*
X226386Y356413D02*
X244890D01*
X214181Y337516D02*
X214575Y337909D01*
X196858Y337516D02*
X214181D01*
X226386Y356413D02*
Y363976D01*
X222539Y367823D02*
X226386Y363976D01*
X194095Y367823D02*
X222539D01*
X184843Y358571D02*
X194095Y367823D01*
X184843Y356307D02*
Y358571D01*
X214469Y356307D02*
X214575Y356413D01*
X196653Y356307D02*
X214469D01*
X214575Y337909D02*
Y356413D01*
X226386Y337909D02*
Y356413D01*
X196850Y317921D02*
X196858Y317929D01*
Y337516D01*
X185039Y296972D02*
X185047Y296965D01*
X185039Y296972D02*
Y317921D01*
X185047Y317929D01*
Y337516D01*
X184843Y337720D02*
X185047Y337516D01*
X184843Y337720D02*
Y356307D01*
X129142Y298524D02*
Y304839D01*
Y298524D02*
X136221Y291445D01*
Y282291D02*
Y291445D01*
X132185Y278256D02*
X136221Y282291D01*
X126673Y278256D02*
X132185D01*
X121752Y283177D02*
X126673Y278256D01*
X121752Y283177D02*
Y310835D01*
X116240Y316347D02*
X121752Y310835D01*
X113362Y316347D02*
X116240D01*
X111504Y318205D02*
X113362Y316347D01*
X111504Y318205D02*
Y325705D01*
X108366Y312409D02*
X114567D01*
X117331Y309646D01*
Y304839D02*
Y309646D01*
X124803Y312902D02*
X129457Y317555D01*
X124803Y296465D02*
Y312902D01*
Y296465D02*
X129142Y292126D01*
Y287122D02*
Y292126D01*
X137795Y319299D02*
Y338984D01*
Y319299D02*
X142213Y314882D01*
X148906D01*
X154339Y139075D02*
Y157201D01*
Y139075D02*
X166528Y126886D01*
X181504D01*
X191634Y116347D02*
X195677Y120390D01*
X136622Y157201D02*
Y166634D01*
X130512Y172744D02*
X136622Y166634D01*
X118405Y172744D02*
X130512D01*
X113000Y178150D02*
X118405Y172744D01*
X113000Y178150D02*
Y195075D01*
X120480Y351295D02*
X125484D01*
X137795Y338984D01*
X158366Y279929D02*
Y292528D01*
X154626Y276189D02*
X158366Y279929D01*
X146949Y276189D02*
X154626D01*
X141240Y281898D02*
Y301386D01*
X137787Y304839D02*
X141240Y301386D01*
X129142Y304839D02*
X137787D01*
X134260Y251689D02*
X154732D01*
X117126D02*
X134260D01*
X157882Y351295D02*
X160819D01*
X175787Y336327D01*
Y303059D02*
Y336327D01*
X164181Y291453D02*
X175787Y303059D01*
X164181Y287122D02*
Y291453D01*
X152370Y287122D02*
Y304445D01*
X166858Y316079D02*
Y325705D01*
X164181Y313402D02*
X166858Y316079D01*
X164181Y304445D02*
Y313402D01*
X148906Y314882D02*
Y325705D01*
Y314882D02*
X152370Y311417D01*
Y304445D02*
Y311417D01*
X115362Y275409D02*
X117331Y277378D01*
Y287122D01*
Y304839D01*
X268039Y111925D02*
X283083D01*
X297083Y113000D02*
Y119378D01*
X122449Y145776D02*
X126386Y141839D01*
X131102D01*
X137402Y135539D01*
Y126878D02*
Y135539D01*
X122449Y145776D02*
Y157201D01*
X151575Y119791D02*
Y126878D01*
Y119791D02*
X155118Y116248D01*
X155217Y116347D01*
X191634D01*
X196850Y317921D02*
X269094D01*
X276870Y310146D01*
X104724Y316051D02*
X108366Y312409D01*
X297083Y119378D02*
X312402Y134697D01*
Y144595D01*
X309244Y147752D02*
X312402Y144595D01*
X308768Y147752D02*
X312402Y151386D01*
Y188689D01*
X310032Y191059D02*
X312402Y188689D01*
X164181Y298342D02*
Y304445D01*
X158366Y292528D02*
X164181Y298342D01*
X164173Y278650D02*
X164181Y278658D01*
Y287122D01*
D30*
X231882Y222850D02*
Y233972D01*
X248039Y111925D02*
Y123228D01*
X246465Y124803D02*
X248039Y123228D01*
X308095Y186500D02*
X309547Y185047D01*
X289445Y186500D02*
X308095D01*
X274606Y171661D02*
X289445Y186500D01*
X162606Y182004D02*
X164181Y180429D01*
X230429Y173433D02*
X231217Y174221D01*
X239665Y166165D02*
X240059Y166559D01*
X256496Y145087D02*
X266035D01*
X185047Y285055D02*
X189181Y280921D01*
Y269996D02*
Y280921D01*
X248039Y123228D02*
X249205D01*
X247925D02*
X248039D01*
X249016Y151091D02*
X251772Y148335D01*
Y125795D02*
Y148335D01*
X249205Y123228D02*
X251772Y125795D01*
X249508Y135835D02*
Y147071D01*
X248327Y134653D02*
X249508Y135835D01*
X202953Y213689D02*
X223220Y193421D01*
X230126D01*
X241240Y141642D02*
Y142724D01*
Y141642D02*
X241347Y141535D01*
Y138106D02*
Y141535D01*
X155126Y228067D02*
X183866D01*
X185366Y226567D01*
X172153Y267240D02*
X184457D01*
X168602Y263689D02*
X172153Y267240D01*
X192323Y230126D02*
X222638Y199811D01*
X166437Y230126D02*
X192323D01*
X161417Y235146D02*
X166437Y230126D01*
X189656Y232282D02*
X199213Y241839D01*
X165059Y236425D02*
X169202Y232282D01*
X189656D01*
X175992Y257398D02*
X184457D01*
X172244Y253650D02*
X175992Y257398D01*
X172244Y240953D02*
Y253650D01*
X257587Y157087D02*
Y165961D01*
Y157087D02*
X258071Y156602D01*
X255618Y157693D02*
Y165961D01*
X263394Y171768D02*
X263500Y171661D01*
X274606D01*
X309547Y173236D02*
Y185047D01*
X304732Y168421D02*
X309547Y173236D01*
X304732Y157752D02*
Y168421D01*
X266035Y145087D02*
X266339Y145390D01*
X246457Y141839D02*
X246465Y141831D01*
Y138106D02*
Y141831D01*
X249016Y151091D02*
X255618Y157693D01*
X243905Y146177D02*
X245177Y147449D01*
X243905Y138106D02*
Y146177D01*
X246465Y124803D02*
Y132398D01*
X261819Y156807D02*
Y167027D01*
X253346Y148335D02*
X261819Y156807D01*
X253346Y108079D02*
Y148335D01*
X248622Y103354D02*
X253346Y108079D01*
X243602Y103354D02*
X248622D01*
X238039Y108917D02*
X243602Y103354D01*
X238039Y108917D02*
Y111925D01*
X231882Y222850D02*
X237902Y216831D01*
Y199228D02*
Y216831D01*
X309744Y222350D02*
X315059Y217035D01*
X214575Y233972D02*
X214961Y234358D01*
Y249122D01*
X206685Y257398D02*
X214961Y249122D01*
X199811Y257398D02*
X206685D01*
X241347Y136909D02*
Y138106D01*
Y136909D02*
X242126Y136130D01*
X245866D01*
X246465Y136728D01*
Y138106D01*
X242028Y134653D02*
X248327D01*
X241347Y133972D02*
X242028Y134653D01*
X243701Y199335D02*
X243807Y199228D01*
X243701Y199335D02*
Y233965D01*
X263394Y185547D02*
X270972D01*
X295866Y210441D01*
Y218905D01*
X295669Y225106D02*
Y309457D01*
X292618Y312508D02*
X295669Y309457D01*
X286756Y312508D02*
X292618D01*
X279795Y319468D02*
X286756Y312508D01*
X134260Y263500D02*
X142610D01*
X146555Y259555D01*
X156693D01*
X161417Y254831D01*
Y235146D02*
Y254831D01*
X222638Y199811D02*
X230610D01*
X224410Y205274D02*
Y205815D01*
X224114Y206110D02*
X224410Y205815D01*
X224114Y206110D02*
X224262Y206258D01*
X154732Y263500D02*
X161803D01*
X165059Y260244D01*
Y236425D02*
Y260244D01*
X184055Y240953D02*
Y245776D01*
X189181Y250902D01*
Y254642D01*
X191150Y269996D02*
Y282201D01*
X251378Y165657D02*
X251681Y165961D01*
X251378Y159653D02*
Y165657D01*
X210138Y225500D02*
X230610Y205028D01*
Y199811D02*
Y205028D01*
Y199811D02*
X237500Y192921D01*
X224024Y185547D02*
X230126D01*
X197252Y212319D02*
X224024Y185547D01*
X207185Y223335D02*
X224262Y206258D01*
X207185Y223335D02*
Y239378D01*
X204724Y241839D02*
X207185Y239378D01*
X199213Y241839D02*
X204724D01*
X195087Y245965D02*
X199213Y241839D01*
X195087Y245965D02*
Y254642D01*
X253650Y165961D02*
Y189567D01*
X250295Y192921D02*
X253650Y189567D01*
X237500Y192921D02*
X250295D01*
X210138Y225500D02*
Y240362D01*
X206004Y244496D02*
X210138Y240362D01*
X200394Y244496D02*
X206004D01*
X197055Y247835D02*
X200394Y244496D01*
X197055Y247835D02*
Y254642D01*
X196858Y287909D02*
Y296965D01*
X191150Y282201D02*
X196858Y287909D01*
X299732Y211059D02*
X303945D01*
X272252Y183579D02*
X299732Y211059D01*
X292980Y201059D02*
X303945D01*
X273532Y181610D02*
X292980Y201059D01*
X263394Y181610D02*
X273532D01*
X263394Y183579D02*
X272252D01*
X257882Y189484D02*
X263394D01*
X255512Y187114D02*
X257882Y189484D01*
X255512Y173335D02*
Y187114D01*
Y173335D02*
X261819Y167027D01*
X278839Y222350D02*
X309744D01*
X264764Y208276D02*
X278839Y222350D01*
X262697Y208276D02*
X264764D01*
X257587Y203165D02*
X262697Y208276D01*
X257587Y199228D02*
Y203165D01*
X258039Y111925D02*
X265528Y104437D01*
X230126Y173736D02*
X230429Y173433D01*
X264272Y212803D02*
X285531Y234063D01*
Y302151D01*
X252756Y206110D02*
X281201Y234555D01*
Y302151D01*
X250969Y214968D02*
X263887Y227887D01*
X247736Y206799D02*
X272539Y231602D01*
Y302151D01*
X263887Y227887D02*
Y302141D01*
X263878Y302151D02*
X263887Y302141D01*
X197252Y212319D02*
Y220587D01*
X192961Y224878D02*
X197252Y220587D01*
X185366Y224878D02*
X192961D01*
X222843Y183579D02*
X230126D01*
X176374Y209968D02*
X179929Y206413D01*
X176374Y209968D02*
Y217370D01*
X238787Y138106D02*
Y153854D01*
X241740Y156807D01*
Y165862D01*
X241839Y165961D01*
X243905Y127870D02*
Y132398D01*
X242134Y126098D02*
X243905Y127870D01*
X235835Y126098D02*
X242134D01*
X232291Y129642D02*
X235835Y126098D01*
X241347Y132398D02*
Y133972D01*
X228039Y111925D02*
Y153185D01*
X258039Y111925D02*
X258276Y112161D01*
X135835Y182004D02*
X162606D01*
X188591Y157595D02*
Y182004D01*
X164181D02*
X188591D01*
X134653Y183185D02*
X135835Y182004D01*
X176374Y224878D02*
X177941D01*
X185386Y217433D01*
X169760Y217370D02*
X176374D01*
X134653Y228067D02*
X138984D01*
X185366Y224878D02*
Y226567D01*
X107095Y215075D02*
X113000D01*
X103551Y211531D02*
X107095Y215075D01*
X228748Y104445D02*
X232386Y108083D01*
Y114214D01*
X230791Y115808D02*
X232386Y114214D01*
X138984Y228067D02*
X143512Y223539D01*
X163591D01*
X169760Y217370D01*
X113000Y225075D02*
X124555D01*
X129831Y219799D01*
X162409D01*
X222941Y171768D02*
X230126D01*
X218512Y176197D02*
X222941Y171768D01*
X218512Y176197D02*
Y178756D01*
X200008Y206413D02*
X222843Y183579D01*
X179929Y206413D02*
X200008D01*
X162409Y219799D02*
X178650Y203559D01*
X199319D01*
X218512Y184366D01*
X210736Y170488D02*
X228039Y153185D01*
X210736Y170488D02*
Y181610D01*
X189772D02*
X210736D01*
X230126D01*
X279795Y319468D02*
Y328165D01*
X276583Y331378D02*
X279795Y328165D01*
X270083Y331378D02*
X276583D01*
X265528Y104437D02*
X297642D01*
X315059Y121854D01*
Y217035D01*
X103551Y140650D02*
Y211531D01*
Y140650D02*
X139756Y104445D01*
X228748D01*
X168602Y258276D02*
X168898Y257980D01*
X168602Y258276D02*
Y263689D01*
X231217Y174221D02*
X233350D01*
X236402Y177272D01*
X243807Y152772D02*
X249508Y147071D01*
X236425Y134760D02*
X238787Y132398D01*
X236425Y134760D02*
Y155035D01*
X232291Y129642D02*
Y154839D01*
X230791Y115808D02*
Y156095D01*
X243807Y152772D02*
Y165961D01*
X230791Y156095D02*
X235933Y161236D01*
Y165961D01*
X232291Y154839D02*
X237902Y160449D01*
Y165961D01*
X236425Y155035D02*
X239870Y158480D01*
Y165961D01*
X239665Y166165D02*
X239870Y165961D01*
X244291Y174024D02*
Y178748D01*
X243807Y165961D02*
Y173539D01*
X244291Y174024D01*
X239870Y166748D02*
X240059Y166559D01*
X237795Y181209D02*
Y183571D01*
Y181209D02*
X239870Y179134D01*
Y166748D02*
Y179134D01*
X236402Y177272D02*
X237008D01*
X241839Y188598D02*
X242323Y189083D01*
X241839Y165961D02*
Y188598D01*
D31*
X204724Y288886D02*
Y302075D01*
X196850Y309949D02*
X204724Y302075D01*
X196850Y309949D02*
Y317921D01*
X199951Y284112D02*
X204724Y288886D01*
X199951Y284112D02*
X204724Y279339D01*
X195087Y279248D02*
X199951Y284112D01*
X266339Y145390D02*
X279535D01*
X195087Y269996D02*
Y279248D01*
D32*
X204724Y279339D02*
X210630Y273433D01*
D33*
Y259949D02*
Y273433D01*
D34*
X270083Y331378D02*
D03*
Y361299D02*
D03*
X304732Y147752D02*
D03*
Y157752D02*
D03*
X113000Y215075D02*
D03*
Y205075D02*
D03*
Y225075D02*
D03*
X303945Y201059D02*
D03*
Y191059D02*
D03*
Y211059D02*
D03*
X248039Y111925D02*
D03*
X258039D02*
D03*
X238039D02*
D03*
X228039D02*
D03*
D35*
X304732Y137752D02*
D03*
X113000Y195075D02*
D03*
X303945Y181059D02*
D03*
D36*
X268039Y111925D02*
D03*
D37*
X137402Y126878D02*
D03*
X151575D02*
D03*
X181504Y126886D02*
D03*
X195677D02*
D03*
D38*
X112598Y113098D02*
D03*
X305512Y365067D02*
D03*
D39*
X146161Y276976D02*
D03*
X202953Y224417D02*
D03*
Y213689D02*
D03*
X154724Y245874D02*
D03*
X219980Y127173D02*
D03*
X265256Y127469D02*
D03*
X256496Y145087D02*
D03*
X164173Y278650D02*
D03*
D40*
X168405Y169693D02*
D03*
X210630Y259949D02*
D03*
X241240Y142724D02*
D03*
X161417Y216248D02*
D03*
X171685Y224878D02*
D03*
X258071Y156602D02*
D03*
X262303Y151878D02*
D03*
X247925Y123228D02*
D03*
X246457Y141839D02*
D03*
X249016Y151091D02*
D03*
X245177Y147449D02*
D03*
X295866Y218905D02*
D03*
X295669Y225106D02*
D03*
X224410Y205274D02*
D03*
X251378Y159653D02*
D03*
X264272Y212803D02*
D03*
X244291Y178748D02*
D03*
X252756Y206110D02*
D03*
X247736Y206799D02*
D03*
X250969Y214968D02*
D03*
X218512Y178756D02*
D03*
Y184366D02*
D03*
X168898Y257980D02*
D03*
X237795Y183571D02*
D03*
X237008Y177272D02*
D03*
X242323Y189083D02*
D03*
X171653Y235539D02*
D03*
D41*
X148425Y146661D02*
D03*
X125197Y324417D02*
D03*
X224213Y150992D02*
D03*
M02*
