G04 Layer_Color=16711935*
%FSLAX25Y25*%
%MOIN*%
G70*
G01*
G75*
%ADD38C,0.11811*%
%ADD62C,0.07087*%
%ADD63R,0.07087X0.07087*%
%ADD64R,0.07087X0.07087*%
%ADD65C,0.08268*%
%ADD66C,0.03950*%
%ADD67C,0.03162*%
%ADD68C,0.03556*%
D38*
X112598Y113098D02*
D03*
X305512Y365067D02*
D03*
D62*
X270083Y331378D02*
D03*
Y361299D02*
D03*
X304732Y147752D02*
D03*
Y157752D02*
D03*
X113000Y215075D02*
D03*
Y205075D02*
D03*
Y225075D02*
D03*
X303945Y201059D02*
D03*
Y191059D02*
D03*
Y211059D02*
D03*
X248039Y111925D02*
D03*
X258039D02*
D03*
X238039D02*
D03*
X228039D02*
D03*
D63*
X304732Y137752D02*
D03*
X113000Y195075D02*
D03*
X303945Y181059D02*
D03*
D64*
X268039Y111925D02*
D03*
D65*
X137402Y126878D02*
D03*
X151575D02*
D03*
X181504Y126886D02*
D03*
X195677D02*
D03*
D66*
X146161Y276976D02*
D03*
X202953Y224417D02*
D03*
Y213689D02*
D03*
X154724Y245874D02*
D03*
X219980Y127173D02*
D03*
X265256Y127469D02*
D03*
X256496Y145087D02*
D03*
X164173Y278650D02*
D03*
D67*
X168405Y169693D02*
D03*
X210630Y259949D02*
D03*
X241240Y142724D02*
D03*
X161417Y216248D02*
D03*
X171685Y224878D02*
D03*
X258071Y156602D02*
D03*
X262303Y151878D02*
D03*
X247925Y123228D02*
D03*
X246457Y141839D02*
D03*
X249016Y151091D02*
D03*
X245177Y147449D02*
D03*
X295866Y218905D02*
D03*
X295669Y225106D02*
D03*
X224410Y205274D02*
D03*
X251378Y159653D02*
D03*
X264272Y212803D02*
D03*
X244291Y178748D02*
D03*
X252756Y206110D02*
D03*
X247736Y206799D02*
D03*
X250969Y214968D02*
D03*
X218512Y178756D02*
D03*
Y184366D02*
D03*
X168898Y257980D02*
D03*
X237795Y183571D02*
D03*
X237008Y177272D02*
D03*
X242323Y189083D02*
D03*
X171653Y235539D02*
D03*
D68*
X148425Y146661D02*
D03*
X125197Y324417D02*
D03*
X224213Y150992D02*
D03*
M02*
