G04 Layer_Color=65535*
%FSLAX25Y25*%
%MOIN*%
G70*
G01*
G75*
%ADD30C,0.01000*%
%ADD31C,0.01181*%
%ADD42C,0.00984*%
%ADD43C,0.02362*%
%ADD44C,0.01968*%
%ADD45C,0.00394*%
%ADD46C,0.00787*%
G36*
X301780Y132831D02*
X299811D01*
Y134799D01*
X301780Y132831D01*
D02*
G37*
G36*
X127559Y136721D02*
Y140657D01*
X131496D01*
X127559Y136721D01*
D02*
G37*
G36*
X273059Y107102D02*
X270992D01*
X272862Y108972D01*
X273059D01*
Y107102D01*
D02*
G37*
G36*
X247941Y130724D02*
X246760D01*
X247941Y131905D01*
Y130724D01*
D02*
G37*
G36*
X110146Y190252D02*
X108079D01*
X108177Y190350D01*
Y192122D01*
X108276D01*
X110146Y190252D01*
D02*
G37*
G36*
X250398Y321535D02*
X245476D01*
Y326457D01*
X250398Y321535D01*
D02*
G37*
G36*
X171661Y136728D02*
Y140665D01*
X175598D01*
X171661Y136728D01*
D02*
G37*
G36*
X301091Y176236D02*
X299024D01*
X299122Y176335D01*
Y178106D01*
X299220D01*
X301091Y176236D01*
D02*
G37*
D30*
X237795Y369003D02*
Y365067D01*
X239763D01*
X240419Y365723D01*
Y366379D01*
X239763Y367035D01*
X237795D01*
X239763D01*
X240419Y367691D01*
Y368347D01*
X239763Y369003D01*
X237795D01*
X241731Y365067D02*
X243043D01*
X242387D01*
Y369003D01*
X241731Y368347D01*
X159483Y208814D02*
Y204878D01*
X161451D01*
X162107Y205534D01*
Y206190D01*
X161451Y206846D01*
X159483D01*
X161451D01*
X162107Y207502D01*
Y208158D01*
X161451Y208814D01*
X159483D01*
X166042Y204878D02*
X163418D01*
X166042Y207502D01*
Y208158D01*
X165386Y208814D01*
X164074D01*
X163418Y208158D01*
X150707Y315658D02*
X150050Y316314D01*
X148739D01*
X148083Y315658D01*
Y313034D01*
X148739Y312378D01*
X150050D01*
X150707Y313034D01*
X152018Y312378D02*
X153330D01*
X152674D01*
Y316314D01*
X152018Y315658D01*
X150707Y298358D02*
X150050Y299014D01*
X148739D01*
X148083Y298358D01*
Y295734D01*
X148739Y295078D01*
X150050D01*
X150707Y295734D01*
X154642Y295078D02*
X152018D01*
X154642Y297702D01*
Y298358D01*
X153986Y299014D01*
X152674D01*
X152018Y298358D01*
X116806Y316058D02*
X116150Y316714D01*
X114839D01*
X114183Y316058D01*
Y313434D01*
X114839Y312778D01*
X116150D01*
X116806Y313434D01*
X118118Y316058D02*
X118774Y316714D01*
X120086D01*
X120742Y316058D01*
Y315402D01*
X120086Y314746D01*
X119430D01*
X120086D01*
X120742Y314090D01*
Y313434D01*
X120086Y312778D01*
X118774D01*
X118118Y313434D01*
X116806Y298358D02*
X116150Y299014D01*
X114839D01*
X114183Y298358D01*
Y295734D01*
X114839Y295078D01*
X116150D01*
X116806Y295734D01*
X120086Y295078D02*
Y299014D01*
X118118Y297046D01*
X120742D01*
X278206Y155758D02*
X277551Y156414D01*
X276239D01*
X275583Y155758D01*
Y153134D01*
X276239Y152478D01*
X277551D01*
X278206Y153134D01*
X282142Y156414D02*
X279518D01*
Y154446D01*
X280830Y155102D01*
X281486D01*
X282142Y154446D01*
Y153134D01*
X281486Y152478D01*
X280174D01*
X279518Y153134D01*
X264435Y155748D02*
X263779Y156404D01*
X262467D01*
X261811Y155748D01*
Y153124D01*
X262467Y152469D01*
X263779D01*
X264435Y153124D01*
X268371Y156404D02*
X267059Y155748D01*
X265747Y154436D01*
Y153124D01*
X266403Y152469D01*
X267715D01*
X268371Y153124D01*
Y153780D01*
X267715Y154436D01*
X265747D01*
X153806Y238458D02*
X153150Y239114D01*
X151839D01*
X151183Y238458D01*
Y235834D01*
X151839Y235178D01*
X153150D01*
X153806Y235834D01*
X155118Y239114D02*
X157742D01*
Y238458D01*
X155118Y235834D01*
Y235178D01*
X133307Y238458D02*
X132650Y239114D01*
X131339D01*
X130683Y238458D01*
Y235834D01*
X131339Y235178D01*
X132650D01*
X133307Y235834D01*
X134618Y238458D02*
X135274Y239114D01*
X136586D01*
X137242Y238458D01*
Y237802D01*
X136586Y237146D01*
X137242Y236490D01*
Y235834D01*
X136586Y235178D01*
X135274D01*
X134618Y235834D01*
Y236490D01*
X135274Y237146D01*
X134618Y237802D01*
Y238458D01*
X135274Y237146D02*
X136586D01*
X184506Y308158D02*
X183851Y308814D01*
X182539D01*
X181883Y308158D01*
Y305534D01*
X182539Y304878D01*
X183851D01*
X184506Y305534D01*
X185818D02*
X186474Y304878D01*
X187786D01*
X188442Y305534D01*
Y308158D01*
X187786Y308814D01*
X186474D01*
X185818Y308158D01*
Y307502D01*
X186474Y306846D01*
X188442D01*
X202206Y245158D02*
X201551Y245814D01*
X200239D01*
X199583Y245158D01*
Y242534D01*
X200239Y241878D01*
X201551D01*
X202206Y242534D01*
X203518Y241878D02*
X204830D01*
X204174D01*
Y245814D01*
X203518Y245158D01*
X206798D02*
X207454Y245814D01*
X208766D01*
X209422Y245158D01*
Y242534D01*
X208766Y241878D01*
X207454D01*
X206798Y242534D01*
Y245158D01*
X114806Y273758D02*
X114151Y274414D01*
X112839D01*
X112183Y273758D01*
Y271134D01*
X112839Y270478D01*
X114151D01*
X114806Y271134D01*
X116118Y270478D02*
X117430D01*
X116774D01*
Y274414D01*
X116118Y273758D01*
X119398Y270478D02*
X120710D01*
X120054D01*
Y274414D01*
X119398Y273758D01*
X134506Y204258D02*
X133851Y204914D01*
X132539D01*
X131883Y204258D01*
Y201634D01*
X132539Y200978D01*
X133851D01*
X134506Y201634D01*
X135818Y200978D02*
X137130D01*
X136474D01*
Y204914D01*
X135818Y204258D01*
X141722Y200978D02*
X139098D01*
X141722Y203602D01*
Y204258D01*
X141066Y204914D01*
X139754D01*
X139098Y204258D01*
X171706Y252158D02*
X171051Y252814D01*
X169739D01*
X169083Y252158D01*
Y249534D01*
X169739Y248878D01*
X171051D01*
X171706Y249534D01*
X173018Y248878D02*
X174330D01*
X173674D01*
Y252814D01*
X173018Y252158D01*
X176298D02*
X176954Y252814D01*
X178266D01*
X178922Y252158D01*
Y251502D01*
X178266Y250846D01*
X177610D01*
X178266D01*
X178922Y250190D01*
Y249534D01*
X178266Y248878D01*
X176954D01*
X176298Y249534D01*
X184506Y329158D02*
X183851Y329814D01*
X182539D01*
X181883Y329158D01*
Y326534D01*
X182539Y325878D01*
X183851D01*
X184506Y326534D01*
X185818Y325878D02*
X187130D01*
X186474D01*
Y329814D01*
X185818Y329158D01*
X191066Y325878D02*
Y329814D01*
X189098Y327846D01*
X191722D01*
X184506Y348758D02*
X183851Y349414D01*
X182539D01*
X181883Y348758D01*
Y346134D01*
X182539Y345478D01*
X183851D01*
X184506Y346134D01*
X185818Y345478D02*
X187130D01*
X186474D01*
Y349414D01*
X185818Y348758D01*
X191722Y349414D02*
X189098D01*
Y347446D01*
X190410Y348102D01*
X191066D01*
X191722Y347446D01*
Y346134D01*
X191066Y345478D01*
X189754D01*
X189098Y346134D01*
X214106Y349158D02*
X213451Y349814D01*
X212139D01*
X211483Y349158D01*
Y346534D01*
X212139Y345878D01*
X213451D01*
X214106Y346534D01*
X215418Y345878D02*
X216730D01*
X216074D01*
Y349814D01*
X215418Y349158D01*
X221322Y349814D02*
X220010Y349158D01*
X218698Y347846D01*
Y346534D01*
X219354Y345878D01*
X220666D01*
X221322Y346534D01*
Y347190D01*
X220666Y347846D01*
X218698D01*
X214106Y367658D02*
X213451Y368314D01*
X212139D01*
X211483Y367658D01*
Y365034D01*
X212139Y364378D01*
X213451D01*
X214106Y365034D01*
X215418Y364378D02*
X216730D01*
X216074D01*
Y368314D01*
X215418Y367658D01*
X218698Y368314D02*
X221322D01*
Y367658D01*
X218698Y365034D01*
Y364378D01*
X184307Y367558D02*
X183651Y368214D01*
X182339D01*
X181683Y367558D01*
Y364934D01*
X182339Y364278D01*
X183651D01*
X184307Y364934D01*
X185618Y364278D02*
X186930D01*
X186274D01*
Y368214D01*
X185618Y367558D01*
X188898D02*
X189554Y368214D01*
X190866D01*
X191522Y367558D01*
Y366902D01*
X190866Y366246D01*
X191522Y365590D01*
Y364934D01*
X190866Y364278D01*
X189554D01*
X188898Y364934D01*
Y365590D01*
X189554Y366246D01*
X188898Y366902D01*
Y367558D01*
X189554Y366246D02*
X190866D01*
X119183Y171014D02*
Y167078D01*
X121151D01*
X121807Y167734D01*
Y170358D01*
X121151Y171014D01*
X119183D01*
X123118Y167078D02*
X124430D01*
X123774D01*
Y171014D01*
X123118Y170358D01*
X150983Y171014D02*
Y167078D01*
X152951D01*
X153606Y167734D01*
Y170358D01*
X152951Y171014D01*
X150983D01*
X157542Y167078D02*
X154918D01*
X157542Y169702D01*
Y170358D01*
X156886Y171014D01*
X155574D01*
X154918Y170358D01*
X304592Y170184D02*
X303280D01*
X303936D01*
Y166904D01*
X303280Y166248D01*
X302625D01*
X301969Y166904D01*
X305904Y166248D02*
X307216D01*
X306560D01*
Y170184D01*
X305904Y169528D01*
X111506Y237714D02*
X110195D01*
X110851D01*
Y234434D01*
X110195Y233778D01*
X109539D01*
X108883Y234434D01*
X115442Y233778D02*
X112818D01*
X115442Y236402D01*
Y237058D01*
X114786Y237714D01*
X113474D01*
X112818Y237058D01*
X303411Y223727D02*
X302099D01*
X302755D01*
Y220447D01*
X302099Y219791D01*
X301443D01*
X300787Y220447D01*
X304723Y223071D02*
X305379Y223727D01*
X306691D01*
X307347Y223071D01*
Y222415D01*
X306691Y221759D01*
X306035D01*
X306691D01*
X307347Y221103D01*
Y220447D01*
X306691Y219791D01*
X305379D01*
X304723Y220447D01*
X226307Y124514D02*
X224995D01*
X225651D01*
Y121234D01*
X224995Y120578D01*
X224339D01*
X223683Y121234D01*
X229586Y120578D02*
Y124514D01*
X227618Y122546D01*
X230242D01*
X126772Y146955D02*
Y143020D01*
Y144332D01*
X129395Y146955D01*
X127428Y144988D01*
X129395Y143020D01*
X130707D02*
X132019D01*
X131363D01*
Y146955D01*
X130707Y146300D01*
X172835Y147349D02*
Y143413D01*
Y144725D01*
X175459Y147349D01*
X173491Y145381D01*
X175459Y143413D01*
X179394D02*
X176770D01*
X179394Y146037D01*
Y146693D01*
X178738Y147349D01*
X177426D01*
X176770Y146693D01*
X229583Y241878D02*
Y245814D01*
X231551D01*
X232207Y245158D01*
Y243846D01*
X231551Y243190D01*
X229583D01*
X230895D02*
X232207Y241878D01*
X233518D02*
X234830D01*
X234174D01*
Y245814D01*
X233518Y245158D01*
X186283Y165878D02*
Y169814D01*
X188251D01*
X188907Y169158D01*
Y167846D01*
X188251Y167190D01*
X186283D01*
X187595D02*
X188907Y165878D01*
X192842D02*
X190218D01*
X192842Y168502D01*
Y169158D01*
X192186Y169814D01*
X190874D01*
X190218Y169158D01*
X130383Y269878D02*
Y273814D01*
X132351D01*
X133007Y273158D01*
Y271846D01*
X132351Y271190D01*
X130383D01*
X131695D02*
X133007Y269878D01*
X134318Y273158D02*
X134974Y273814D01*
X136286D01*
X136942Y273158D01*
Y272502D01*
X136286Y271846D01*
X135630D01*
X136286D01*
X136942Y271190D01*
Y270534D01*
X136286Y269878D01*
X134974D01*
X134318Y270534D01*
X150783Y269878D02*
Y273814D01*
X152751D01*
X153407Y273158D01*
Y271846D01*
X152751Y271190D01*
X150783D01*
X152095D02*
X153407Y269878D01*
X156686D02*
Y273814D01*
X154718Y271846D01*
X157342D01*
X282283Y120278D02*
Y124214D01*
X284251D01*
X284907Y123558D01*
Y122246D01*
X284251Y121590D01*
X282283D01*
X283595D02*
X284907Y120278D01*
X288842Y124214D02*
X286218D01*
Y122246D01*
X287530Y122902D01*
X288186D01*
X288842Y122246D01*
Y120934D01*
X288186Y120278D01*
X286874D01*
X286218Y120934D01*
X251969Y317034D02*
Y313754D01*
X252625Y313098D01*
X253936D01*
X254592Y313754D01*
Y317034D01*
X255904Y313098D02*
X257216D01*
X256560D01*
Y317034D01*
X255904Y316378D01*
X144783Y371314D02*
Y368034D01*
X145439Y367378D01*
X146750D01*
X147406Y368034D01*
Y371314D01*
X151342Y367378D02*
X148718D01*
X151342Y370002D01*
Y370658D01*
X150686Y371314D01*
X149374D01*
X148718Y370658D01*
X107383Y371314D02*
Y368034D01*
X108039Y367378D01*
X109351D01*
X110006Y368034D01*
Y371314D01*
X111318Y370658D02*
X111974Y371314D01*
X113286D01*
X113942Y370658D01*
Y370002D01*
X113286Y369346D01*
X112630D01*
X113286D01*
X113942Y368690D01*
Y368034D01*
X113286Y367378D01*
X111974D01*
X111318Y368034D01*
X227183Y210114D02*
Y206834D01*
X227839Y206178D01*
X229151D01*
X229806Y206834D01*
Y210114D01*
X233086Y206178D02*
Y210114D01*
X231118Y208146D01*
X233742D01*
X237795Y146562D02*
Y143282D01*
X238451Y142626D01*
X239763D01*
X240419Y143282D01*
Y146562D01*
X244355D02*
X241731D01*
Y144594D01*
X243043Y145250D01*
X243699D01*
X244355Y144594D01*
Y143282D01*
X243699Y142626D01*
X242387D01*
X241731Y143282D01*
X182683Y279714D02*
Y276434D01*
X183339Y275778D01*
X184651D01*
X185307Y276434D01*
Y279714D01*
X189242D02*
X187930Y279058D01*
X186618Y277746D01*
Y276434D01*
X187274Y275778D01*
X188586D01*
X189242Y276434D01*
Y277090D01*
X188586Y277746D01*
X186618D01*
X174083Y235614D02*
Y234958D01*
X175395Y233646D01*
X176707Y234958D01*
Y235614D01*
X175395Y233646D02*
Y231678D01*
X178018D02*
X179330D01*
X178674D01*
Y235614D01*
X178018Y234958D01*
D31*
X126235Y151301D02*
Y163201D01*
X158125Y151301D02*
Y163201D01*
D42*
X290354Y307564D02*
G03*
X290354Y307564I-492J0D01*
G01*
X145362Y325705D02*
G03*
X145362Y325705I-492J0D01*
G01*
X107961D02*
G03*
X107961Y325705I-492J0D01*
G01*
X230618Y196177D02*
G03*
X230618Y196177I-492J0D01*
G01*
X203847Y254248D02*
G03*
X203847Y254248I-492J0D01*
G01*
D43*
X239673Y190862D02*
G03*
X239673Y190862I-1181J0D01*
G01*
D44*
X188984Y227673D02*
D03*
D45*
X245476Y321535D02*
X294689D01*
Y370748D01*
X245476D02*
X294689D01*
X245476Y321535D02*
Y370748D01*
X263193Y326457D02*
Y330394D01*
X261224Y328425D02*
X265161D01*
X159063Y177673D02*
X194496D01*
X159063D02*
Y200902D01*
X194496D01*
Y177673D02*
Y200902D01*
X168512Y299721D02*
Y301689D01*
Y300902D02*
Y301689D01*
X167724Y300902D02*
X169299D01*
X170087Y299721D02*
Y309169D01*
X147252D02*
X170087D01*
X147252Y299721D02*
Y309169D01*
Y299721D02*
X170087D01*
X158276Y301295D02*
Y307594D01*
X168512Y282398D02*
Y284366D01*
Y283579D02*
Y284366D01*
X167724Y283579D02*
X169299D01*
X170087Y282398D02*
Y291846D01*
X147252D02*
X170087D01*
X147252Y282398D02*
Y291846D01*
Y282398D02*
X170087D01*
X158276Y283972D02*
Y290272D01*
X123236Y300902D02*
Y308776D01*
Y283185D02*
Y291059D01*
X275598Y139484D02*
X283472D01*
X261425D02*
X269299D01*
X151189Y222161D02*
X159063D01*
X130717D02*
X138591D01*
X190953Y293028D02*
Y300902D01*
X208669Y230035D02*
Y237910D01*
X112205Y257488D02*
X120079D01*
X131898Y187909D02*
X139772D01*
X178150Y237016D02*
Y244890D01*
X190945Y313984D02*
Y321858D01*
X190953Y333579D02*
Y341453D01*
X220480Y333972D02*
Y341846D01*
Y352476D02*
Y360350D01*
X190748Y352370D02*
Y360244D01*
X118835Y150801D02*
Y163501D01*
Y150801D02*
X140535D01*
Y163501D01*
X118835D02*
X140535D01*
X150725Y150801D02*
Y163501D01*
Y150801D02*
X172425D01*
Y163501D01*
X150725D02*
X172425D01*
X299811Y132831D02*
X309653D01*
Y163342D01*
X299811D02*
X309653D01*
X299811Y162358D02*
Y163342D01*
Y132831D02*
Y162358D01*
X108177Y190252D02*
Y230606D01*
X118413D01*
Y190252D02*
Y230606D01*
X108177Y190252D02*
X118413D01*
X299122Y176236D02*
Y216590D01*
X309358D01*
Y176236D02*
Y216590D01*
X299122Y176236D02*
X309358D01*
X273059Y107201D02*
Y117339D01*
X222862D02*
X273059D01*
X222862Y107201D02*
Y117339D01*
Y107201D02*
X273059D01*
X127559Y111130D02*
Y140657D01*
Y111130D02*
X161024D01*
Y140657D01*
X127559D02*
X161024D01*
X171661Y111138D02*
Y140665D01*
Y111138D02*
X205126D01*
Y140665D01*
X171661D02*
X205126D01*
X237795Y230421D02*
Y237508D01*
X194488Y154043D02*
Y161130D01*
X130717Y257594D02*
X137803D01*
X151189D02*
X158276D01*
X290583Y108835D02*
Y115921D01*
X310693Y303823D02*
Y308547D01*
Y269177D02*
Y295161D01*
X250850Y308547D02*
X310693D01*
X250850Y304217D02*
Y308547D01*
X251244Y267602D02*
Y295161D01*
X251116Y244581D02*
X311087D01*
X251116D02*
Y254907D01*
X311087Y244581D02*
Y254907D01*
X248138Y130527D02*
Y139779D01*
X237311D02*
X248138D01*
X237311Y130527D02*
Y139779D01*
Y130527D02*
X248138D01*
X200795Y253658D02*
Y255528D01*
X198925Y253658D02*
X200795D01*
X183473D02*
X185343D01*
X183473D02*
Y255528D01*
Y269110D02*
Y270980D01*
X185343D01*
X200795Y269110D02*
Y270980D01*
X198925D02*
X200795D01*
X174024Y220193D02*
Y222161D01*
X187803Y220193D02*
Y221768D01*
X179929Y226492D02*
X181898D01*
X179535Y215469D02*
X181898D01*
D46*
X144890Y333776D02*
Y337516D01*
Y333776D02*
X170874D01*
Y337516D01*
X107488Y333776D02*
Y337516D01*
Y333776D02*
X133472D01*
Y337516D01*
X234555Y170390D02*
X258965D01*
X234555Y194799D02*
X258965D01*
Y170390D02*
Y194799D01*
X234555Y170390D02*
Y194799D01*
X302757Y328228D02*
X309449D01*
X302757Y328546D02*
X309449D01*
X304669Y330458D02*
X307218D01*
X302757Y327272D02*
Y332370D01*
X304669D01*
X302757Y332051D01*
X305944Y328546D02*
Y330458D01*
X309449Y327272D02*
Y332370D01*
X307537D01*
X309449Y332051D01*
X302757Y334250D02*
X309449D01*
X302757Y334569D02*
X309449D01*
X304669Y336480D02*
X307218D01*
X302757Y333294D02*
Y338392D01*
X304669D01*
X302757Y338074D01*
X305944Y334569D02*
Y336480D01*
X309449Y333294D02*
Y335525D01*
X303713Y343777D02*
X304669Y344096D01*
X302757D01*
X303713Y343777D01*
X303076Y343140D01*
X302757Y342184D01*
Y341547D01*
X303076Y340591D01*
X303713Y339954D01*
X304351Y339635D01*
X305307Y339316D01*
X306900D01*
X307856Y339635D01*
X308493Y339954D01*
X309130Y340591D01*
X309449Y341547D01*
Y342184D01*
X309130Y343140D01*
X308493Y343777D01*
X302757Y341547D02*
X303076Y340910D01*
X303713Y340272D01*
X304351Y339954D01*
X305307Y339635D01*
X306900D01*
X307856Y339954D01*
X308493Y340272D01*
X309130Y340910D01*
X309449Y341547D01*
X306900Y343777D02*
X309449D01*
X306900Y344096D02*
X309449D01*
X306900Y342821D02*
Y345052D01*
M02*
