G04 Layer_Color=8421504*
%FSLAX25Y25*%
%MOIN*%
G70*
G01*
G75*
%ADD10R,0.07087X0.03937*%
%ADD11R,0.07087X0.04842*%
%ADD12R,0.04528X0.07087*%
%ADD13R,0.07087X0.04528*%
%ADD14R,0.05905X0.07874*%
%ADD15R,0.03937X0.07087*%
%ADD16R,0.06299X0.05512*%
%ADD17R,0.04724X0.08661*%
%ADD18R,0.04724X0.05512*%
%ADD19R,0.02756X0.06299*%
%ADD20R,0.03740X0.10236*%
%ADD21R,0.19291X0.24410*%
%ADD22R,0.01181X0.05709*%
%ADD23R,0.05709X0.01181*%
%ADD24R,0.01378X0.01968*%
%ADD25R,0.02953X0.00787*%
%ADD26R,0.00787X0.02953*%
%ADD27R,0.10630X0.10236*%
%ADD28R,0.05118X0.04331*%
D10*
X188591Y182004D02*
D03*
X164181D02*
D03*
X188984Y196571D02*
D03*
X164181D02*
D03*
X134260Y263500D02*
D03*
Y251689D02*
D03*
X154732Y263500D02*
D03*
Y251689D02*
D03*
D11*
X164181Y304445D02*
D03*
X152370D02*
D03*
X164181Y287122D02*
D03*
X152370D02*
D03*
D12*
X117331Y304839D02*
D03*
X129142D02*
D03*
X117331Y287122D02*
D03*
X129142D02*
D03*
X185047Y296965D02*
D03*
X196858D02*
D03*
X214575Y233972D02*
D03*
X202764D02*
D03*
X172244Y240953D02*
D03*
X184055D02*
D03*
X185039Y317921D02*
D03*
X196850D02*
D03*
X185047Y337516D02*
D03*
X196858D02*
D03*
X226386Y337909D02*
D03*
X214575D02*
D03*
X226386Y356413D02*
D03*
X214575D02*
D03*
X184843Y356307D02*
D03*
X196653D02*
D03*
D13*
X279535Y133579D02*
D03*
Y145390D02*
D03*
X265362Y133579D02*
D03*
Y145390D02*
D03*
X155126Y228067D02*
D03*
Y216256D02*
D03*
X134653Y228067D02*
D03*
Y216256D02*
D03*
X116142Y263394D02*
D03*
Y251583D02*
D03*
X135835Y193815D02*
D03*
Y182004D02*
D03*
D14*
X136622Y157201D02*
D03*
X122449D02*
D03*
X168512D02*
D03*
X154339D02*
D03*
D15*
X243701Y233965D02*
D03*
X231890D02*
D03*
X188583Y157587D02*
D03*
X200394D02*
D03*
X296488Y112378D02*
D03*
X284677D02*
D03*
D16*
X307972Y300182D02*
D03*
D17*
X311516Y262387D02*
D03*
X250492Y262387D02*
D03*
D18*
Y299788D02*
D03*
D19*
X255217Y302151D02*
D03*
X259547D02*
D03*
X263878D02*
D03*
X268209D02*
D03*
X272539D02*
D03*
X276870D02*
D03*
X281201D02*
D03*
X285531D02*
D03*
X289862D02*
D03*
D20*
X148906Y325705D02*
D03*
X166858D02*
D03*
X111504D02*
D03*
X129457D02*
D03*
D21*
X157882Y351295D02*
D03*
X120480D02*
D03*
D22*
X235933Y199228D02*
D03*
X237902D02*
D03*
X239870D02*
D03*
X241839D02*
D03*
X243807D02*
D03*
X245776D02*
D03*
X247744D02*
D03*
X249713D02*
D03*
X251681D02*
D03*
X253650D02*
D03*
X255618D02*
D03*
X257587D02*
D03*
Y165961D02*
D03*
X255618D02*
D03*
X253650D02*
D03*
X251681D02*
D03*
X249713D02*
D03*
X247744D02*
D03*
X245776D02*
D03*
X243807D02*
D03*
X241839D02*
D03*
X239870D02*
D03*
X237902D02*
D03*
X235933D02*
D03*
D23*
X263394Y193421D02*
D03*
Y191453D02*
D03*
Y189484D02*
D03*
Y187516D02*
D03*
Y185547D02*
D03*
Y183579D02*
D03*
Y181610D02*
D03*
Y179642D02*
D03*
Y177673D02*
D03*
Y175705D02*
D03*
Y173736D02*
D03*
Y171768D02*
D03*
X230126D02*
D03*
Y173736D02*
D03*
Y175705D02*
D03*
Y177673D02*
D03*
Y179642D02*
D03*
Y181610D02*
D03*
Y183579D02*
D03*
Y185547D02*
D03*
Y187516D02*
D03*
Y189484D02*
D03*
Y191453D02*
D03*
Y193421D02*
D03*
D24*
X238787Y138106D02*
D03*
X241347D02*
D03*
X243905D02*
D03*
X246465D02*
D03*
X238787Y132398D02*
D03*
X241347D02*
D03*
X243905D02*
D03*
X246465D02*
D03*
D25*
X199811Y257398D02*
D03*
Y259366D02*
D03*
Y261335D02*
D03*
Y263303D02*
D03*
Y265272D02*
D03*
Y267240D02*
D03*
X184457D02*
D03*
Y265272D02*
D03*
Y263303D02*
D03*
Y261335D02*
D03*
Y259366D02*
D03*
Y257398D02*
D03*
D26*
X197055Y269996D02*
D03*
X195087D02*
D03*
X193118D02*
D03*
X191150D02*
D03*
X189181D02*
D03*
X187213D02*
D03*
Y254642D02*
D03*
X189181D02*
D03*
X191150D02*
D03*
X193118D02*
D03*
X195087D02*
D03*
X197055D02*
D03*
D27*
X192134Y262319D02*
D03*
D28*
X185366Y224878D02*
D03*
X185386Y217433D02*
D03*
X176374Y217370D02*
D03*
Y224878D02*
D03*
M02*
