M48
;Layer_Color=9474304
;FILE_FORMAT=2:5
INCH,LZ
;TYPE=PLATED
T2F00S00C0.01181
T3F00S00C0.01378
T4F00S00C0.01575
T5F00S00C0.03150
T6F00S00C0.03937
T7F00S00C0.15748
;TYPE=NON_PLATED
T1F00S00C0.03543
%
T02
X0247925Y0123228
X0246457Y0141839
X024124Y0142724
X0245177Y0147449
X0249016Y0151091
X0262303Y0151878
X0258071Y0156602
X0251378Y0159653
X0244291Y0178748
X0237008Y0177272
X0237795Y0183571
X0242323Y0189083
X0247736Y0206799
X0252756Y020611
X0250969Y0214968
X0264272Y0212803
X0295866Y0218905
X0295669Y0225106
X022441Y0205274
X0218512Y0184366
Y0178756
X0168405Y0169693
X0161417Y0216248
X0171685Y0224878
X0171653Y0235539
X0168898Y025798
X021063Y0259949
T03
X0148425Y0146661
X0224213Y0150992
X0125197Y0324417
T04
X021998Y0127173
X0265256Y0127469
X0256496Y0145087
X0202953Y0213689
Y0224417
X0164173Y027865
X0146161Y0276976
X0154724Y0245874
T05
X0270083Y0331378
Y0361299
T06
X0137402Y0126878
X0151575
X0181504Y0126886
X0195677
X0228039Y0111925
X0238039
X0248039
X0258039
X0268039
X0304732Y0137752
Y0147752
Y0157752
X0303945Y0181059
Y0191059
Y0201059
Y0211059
X0113Y0215075
Y0205075
Y0195075
Y0225075
T07
X0112598Y0113098
X0305512Y0365067
T01
X0261516Y0260812
X0293012
M30
